<?xml version="1.0" encoding="UTF-8" standalone="no"?>
<!-- Created with Inkscape (http://www.inkscape.org/) -->

<svg
   version="1.1"
   id="svg1"
   width="5333.3335"
   height="5333.3335"
   viewBox="0 0 5333.3335 5333.3335"
   sodipodi:docname="vecteezy_gardening-and-plants-icons-vector-design_6792239.eps"
   xmlns:inkscape="http://www.inkscape.org/namespaces/inkscape"
   xmlns:sodipodi="http://sodipodi.sourceforge.net/DTD/sodipodi-0.dtd"
   xmlns="http://www.w3.org/2000/svg"
   xmlns:svg="http://www.w3.org/2000/svg">
  <defs
     id="defs1" />
  <sodipodi:namedview
     id="namedview1"
     pagecolor="#ffffff"
     bordercolor="#000000"
     borderopacity="0.25"
     inkscape:showpageshadow="2"
     inkscape:pageopacity="0.0"
     inkscape:pagecheckerboard="0"
     inkscape:deskcolor="#d1d1d1">
    <inkscape:page
       x="0"
       y="0"
       inkscape:label="1"
       id="page1"
       width="5333.3335"
       height="5333.3335"
       margin="0"
       bleed="0" />
  </sodipodi:namedview>
  <g
     id="g1"
     inkscape:groupmode="layer"
     inkscape:label="1">
    <g
       id="group-R5">
      <path
         id="path2"
         d="m 18946.5,32386.4 c 24.7,-5.5 38.4,-11.2 52,-11.2 690.8,1.1 1381.6,2.6 2072.5,4.3 3,0 6.8,3.4 8.8,6.2 1.9,2.6 1.9,6.5 4.6,17.1 -18.7,20.5 -39.4,45.3 -62.2,68.1 -205.2,205.3 -415.6,405.8 -615,616.7 -190.2,201.2 -550.1,231.5 -778.7,-5.2 -204.3,-211.4 -414.9,-416.6 -622.3,-625 -19.7,-19.8 -36.2,-42.8 -59.7,-71 z m -547.6,3433.6 c -4.4,-48.9 -10.9,-77.7 -8.9,-105.8 8.7,-117.2 10.6,-235.9 32.1,-350.9 73.3,-392.7 265.4,-712.7 596.3,-945.1 197.3,-138.6 410.4,-244.1 638,-321.7 17.3,-5.9 36.6,-5.8 70,-10.7 -21.4,27.9 -31.8,42.7 -43.4,56.5 -219.8,262.2 -440.1,524 -659.4,786.6 -59.7,71.5 -63.6,121.7 -17.7,164.3 49.2,45.6 102.1,33.1 166.1,-42.9 227.7,-270 454.9,-540.4 681.5,-811.4 18.2,-21.7 30.4,-48.5 45.4,-73 24.9,33.1 30.2,47.6 28.9,61.4 -6.2,65.8 -11.2,131.9 -21.8,197.1 -62.4,381.7 -232.2,701.6 -541.3,942.4 -214.5,167 -454.3,284.8 -709.6,373.2 -79.4,27.4 -160.3,50.2 -256.2,80 z m 1726.5,-2381.9 c 225.6,-32.2 380.5,-171.1 529.4,-323.4 221.4,-226.4 448.3,-447.4 670.3,-673.2 47.3,-48.1 95.1,-69.6 164.1,-68.8 320.4,3.8 640.8,2 961.2,1.4 32.8,-0.1 67.3,-0.1 97.8,-10 41.7,-13.5 65.6,-46.7 63.2,-93.2 -2.3,-44.8 -36.1,-79.5 -85.5,-85.7 -25.4,-3.2 -51.5,-1.5 -77.2,-1.5 -1616.8,0 -3233.7,0.1 -4850.5,0.2 -29.4,0 -59.3,-1.9 -88.2,2.5 -48.4,7.4 -79,44.5 -79.8,90.7 -0.9,47.8 26.5,77.2 68.3,88.9 31.1,8.7 65.4,8 98.3,8.1 316.7,0.5 633.4,1.7 950.2,-0.8 70.5,-0.6 123.6,16.8 175.2,69.6 241.7,247.8 490,489.1 732,736.6 118.9,121.5 251.5,214.3 419.7,250.6 14.1,3.1 27.5,9.6 47,16.6 0,119.3 0,239.3 0,363.4 -107.5,33.5 -213.3,63.2 -316.8,99.3 -290.5,101.1 -562.1,237.1 -801.8,433.7 -322.5,264.7 -509.8,607.5 -574.2,1014.1 -27.4,173.1 -24.3,351.8 -24.7,528 -0.3,130.2 48.5,164.5 176.1,134.4 401.8,-94.7 778.5,-246.3 1106.3,-503.7 346.8,-272.2 542,-632.6 612.3,-1064.5 5.1,-31.1 12.7,-61.8 24.6,-118.2 30.6,56.8 49.8,90.3 67.1,124.9 174.1,349.1 347.8,698.5 522.1,1047.6 14.7,29.5 29.5,59.8 49.5,85.7 24.6,31.9 59.9,42.7 98.7,27 41.8,-17 67.4,-49.6 59.5,-94.8 -6.2,-35.4 -21.7,-70 -37.8,-102.6 -190.8,-386 -382.5,-771.6 -573.9,-1157.4 -19.5,-39.1 -38.7,-78.4 -60.1,-121.8 17,-4.6 29.3,-12.3 35.5,-8.9 331.9,184.3 629.8,408.4 845.9,727.5 141.6,209 214.6,440.2 237.2,691.1 21.8,241.8 -8.9,476.8 -67.9,709.9 -8.9,35.1 -21,69.3 -31.9,104.8 -15.3,0 -27.4,3.5 -35.8,-0.5 -351.4,-170.1 -671.6,-383.1 -923,-686.7 -65.3,-78.9 -117.1,-169.1 -175,-254.1 -14.4,-21.2 -25.3,-45.8 -43.3,-63.3 -30.6,-30 -91.5,-30.9 -121.8,-3 -36.1,33.1 -50.8,74.2 -21.7,118.6 78.4,119.8 147.7,247.7 240.1,355.7 287.8,336.3 650.3,572.3 1053.8,747.5 100.5,43.7 147.7,26.5 181.4,-70.2 175.8,-505.9 216,-1013.8 -0.7,-1518.8 -126.3,-294.5 -337.6,-524.2 -583.9,-723.3 -215.9,-174.5 -453.1,-314.7 -711.3,-433 0,-126.2 0,-253.7 0,-397"
         style="fill:#323293;fill-opacity:1;fill-rule:nonzero;stroke:none"
         transform="matrix(0.13333333,0,0,-0.13333333,0,5333.3333)" />
      <path
         id="path3"
         d="m 4971.44,21737.7 c -287.16,-265.4 -324.69,-636.4 3.07,-918.7 291.33,278.1 299.95,627 -3.07,918.7 z m 1507.14,-831.8 c -407.89,19.3 -725.63,-307.2 -644.16,-653.7 421.54,-10.2 650.32,248.3 644.16,653.7 z m -3015.38,-3.6 c -25.7,-403 303.99,-722.9 653.31,-641.7 7.03,388.3 -220.62,656 -653.31,641.7 z m 171.78,-2091.8 c 112.75,-21.2 2585.33,-18.5 2678.78,4.3 0.97,157.7 1.61,317.4 -0.32,480.1 -900.61,0 -1785.83,0 -2678.46,0 0,-163.1 0,-319.8 0,-484.4 z m 1961.08,-1471.9 c 121.43,424.2 240.44,839.9 362.54,1266.5 -662.76,0 -1311.95,0 -1977.09,0 122.68,-429.2 242.27,-847.6 361.99,-1266.5 421.82,0 829.63,0 1252.56,0 z m -522.31,2306.6 c 36.04,32.1 58.17,50 78.26,70 133.09,132.5 263.98,267.2 399.45,397.2 51.44,49.3 70.23,102.5 77.63,173.1 11.77,112.3 33.59,225.4 67.2,333.1 57.88,185.5 185.42,315.5 361.64,395.2 160.4,72.6 330.57,99.1 505.74,92.2 72.45,-2.9 113.7,-36.4 115.42,-107.4 9.51,-391.5 -111.01,-822.3 -646.85,-924.7 -50.4,-9.6 -101.96,-21.2 -152.61,-19.7 -82.71,2.6 -144.9,-22.1 -202.99,-84.8 -122.59,-132.2 -253.89,-256.3 -381.08,-384.2 -22.51,-22.7 -42.41,-47.9 -75.79,-85.9 48.86,-3 79.87,-6.5 110.89,-6.6 331.4,-0.4 662.81,-0.3 994.21,-0.4 25.77,0 51.74,1.7 77.28,-0.8 66.76,-6.6 101.63,-38.5 102.35,-105.6 2.39,-220.9 2.94,-441.9 0.44,-662.8 -0.95,-83.6 -29.69,-107.5 -117.76,-110 -72.96,-2.2 -146.03,-0.5 -224.5,-0.5 -39.97,-135.2 -78.27,-261.1 -114.45,-387.7 -89.94,-314.7 -178.75,-629.7 -268.37,-944.5 -34.15,-120 -46.07,-129.9 -167.26,-130 -427.15,-0.5 -854.28,-0.5 -1281.43,0 -124.6,0.1 -133.51,6.2 -168.51,127.4 -116.27,402.6 -231.28,805.5 -347.06,1208.2 -11.04,38.4 -24.11,76.2 -40.13,126.6 -70.27,0 -139.33,-1.1 -208.34,0.3 -106.81,2.1 -127.91,22.8 -128.52,131.9 -1.15,206.2 -1.16,412.4 0.08,618.6 0.62,102.9 26.06,128.1 133.45,128.4 338.76,1.2 677.53,0.5 1016.3,0.5 38.58,0 77.16,0 138.77,0 -33.68,39 -48.62,58.6 -65.89,75.9 -140.45,140.7 -282.86,279.5 -421.14,422.3 -42,43.4 -86.82,57.5 -145.36,62.9 -101.92,9.3 -205.89,21.1 -303.25,50.7 -279.53,85.1 -441.3,284.1 -500.23,564.7 -21.7,103.3 -24.31,211.5 -27.16,317.7 -2.22,82.6 31.63,115.7 111.34,118.9 182.83,7.3 360.16,-21.5 525.96,-100.9 232.25,-111.3 346.36,-309.9 393.42,-553.3 13.21,-68.3 18.42,-138.5 22.65,-208.1 2.6,-42.8 14.56,-75.9 46.25,-106.9 147.51,-143.9 292.49,-290.5 439.21,-435.3 17.23,-17 39.64,-28.8 67.33,-48.4 2.65,36 6.05,61.1 6.09,86.1 0.41,265.1 -1.2,530.3 1.45,795.4 0.59,60 -19.32,103.2 -59,146.9 -94.35,103.9 -174.57,217.7 -223.85,351.5 -59.77,162.2 -61.94,323.3 -0.79,485.3 62.45,165.5 164.36,303.6 294.89,420.8 59,52.9 102.65,56.8 155.72,6.9 213.98,-201.4 367.83,-432.1 338.56,-744.5 -18.36,-196 -116.37,-356.1 -244.12,-496.5 -54.83,-60.2 -73.66,-118.5 -72.51,-196.3 3.64,-246.7 1.14,-493.4 1.53,-740.1 0.05,-34.9 2.99,-69.7 5.44,-122.8"
         style="fill:#323293;fill-opacity:1;fill-rule:nonzero;stroke:none"
         transform="matrix(0.13333333,0,0,-0.13333333,0,5333.3333)" />
      <path
         id="path4"
         d="m 34294.6,12299.3 c 54.9,446.8 -219.2,843 -686,906.8 -46.4,-467.6 225.6,-827.4 686,-906.8 z m -1194,-374.3 c 86.7,-487.5 500.4,-730.9 927.8,-660.1 -100.7,456.1 -451.9,716.9 -927.8,660.1 z m 3434.1,1289.4 c -453.2,-76.9 -778.5,-514.5 -685.7,-914.6 472.4,78.5 734.6,458.7 685.7,914.6 z m -418.8,-1950 c 426.5,-69.5 843.9,174.2 926.7,661.7 -494,54.7 -828.4,-217.3 -926.7,-661.7 z m -476.6,-1203.6 c 41.3,0 81.2,0 121.1,0 265.2,0 530.4,0.1 795.5,-0.1 29.4,-0.1 59.4,1.6 88.2,-3.3 44.7,-7.5 70.8,-36.2 74.9,-82.4 4,-45.7 -13.8,-81 -57.8,-95.4 -27.2,-8.8 -57.6,-11.2 -86.5,-11.2 -1001.7,-0.5 -2003.4,-0.5 -3005.1,-0.1 -28.9,0 -59.6,1.6 -86.5,10.9 -43,14.9 -62.3,49.6 -57.8,95.7 4.5,45.7 28.6,75.8 74.5,82.5 29,4.3 58.8,3.1 88.2,3.1 265.2,0.3 530.3,0.3 795.5,0.4 40,0 80,0 127.9,0 13.7,75.4 27.2,143 38.2,210.9 22.8,141.6 42.3,283.7 67.3,424.8 9.9,56 -7.6,88.4 -55.9,116.2 -114.9,66 -228.7,134.2 -339.9,206.1 -52.5,33.9 -105.3,41.8 -166.3,42.3 -121,1.1 -243.3,3.5 -362.5,22 -265,41.3 -470.8,181.6 -619.1,404.4 -94.9,142.5 -156.8,299.9 -192.8,466.8 -23.7,110 6.6,145.9 117.8,162.8 204.7,31.1 405.1,8.9 598.6,-57.7 262.8,-90.5 435,-281.7 547.8,-529.5 31.9,-70 58.5,-143.3 78.1,-217.5 17.3,-65.7 51.5,-107.6 111.1,-140 105.7,-57.6 207,-123.3 322.5,-193 26.5,165.1 39.4,316 77.2,460.3 38.8,147.9 -1.5,251.4 -114.6,346.7 -78.2,65.9 -142.6,148.5 -210.6,226 -40.6,46.4 -88,72.5 -148.5,86.4 -170.2,38.9 -326.9,108.6 -469.3,212.1 -202.1,147 -315.6,348.9 -357.3,588.7 -22.5,129.3 -23.6,263.5 -22.2,395.4 1.2,121.6 49.9,151.4 170.7,129.6 138.9,-25.1 269.8,-72.1 393.8,-138.4 289.6,-155.1 459,-396.5 504.8,-721 14.4,-101.4 17.1,-205.2 16.6,-307.8 -0.2,-45.9 15.5,-75.9 44.2,-106.7 115.7,-123.8 227.6,-251.1 346,-372 54.5,-55.7 72.4,-112.6 59.9,-188.6 -50.4,-308.5 -97.5,-617.5 -145.1,-926.5 -30.1,-195.5 -58.8,-391.3 -89.4,-595.5 242.7,0 475.6,0 718.4,0 -23.6,160.3 -45.1,312.5 -68.7,464.3 -54.1,348.9 -108.4,697.8 -164.4,1046.3 -13.2,82 0.6,147.4 64.6,208.9 103.4,99.3 194.1,211.8 296.7,312 62.7,61.2 87.2,125.6 87.6,213.6 0.5,113.1 13.6,227.7 35.5,338.9 51.1,259.1 195.8,455.9 419.8,595.2 148.8,92.6 310.7,150.7 482.2,182.8 91.2,17.2 136.3,-9.7 144.9,-103.1 42.9,-469 -83.2,-924.8 -605.7,-1147.8 -80.7,-34.5 -166,-60 -251,-82.5 -52.3,-13.9 -93.4,-36.8 -129.7,-76.8 -101.2,-112 -204.9,-221.8 -308.4,-331.7 -25.7,-27.3 -50.7,-53.2 -43.9,-95.4 31.7,-198.9 62.9,-397.8 97.2,-614.3 137.1,83.7 263,158.1 385.5,237.7 20.5,13.3 29.7,48.2 38.2,75 42.5,133.5 89.7,264 165.8,383.6 170.3,267.2 414.6,412.5 726.7,440.9 116.3,10.6 234.7,5.6 351.7,-0.8 95.2,-5.2 122,-44 112.8,-136.9 -43.1,-436 -393.9,-821.8 -825,-896 -118.6,-20.4 -241.5,-20.3 -362.4,-21.1 -57.7,-0.4 -107.4,-9.4 -156.1,-40.2 -112.1,-70.7 -225.3,-139.6 -339.5,-206.9 -46.4,-27.4 -68,-59.3 -58.4,-116.4 31.4,-184.8 58.3,-370.5 88.1,-555.6 3.9,-24.7 14.3,-48.4 24.3,-81.1"
         style="fill:#323293;fill-opacity:1;fill-rule:nonzero;stroke:none"
         transform="matrix(0.13333333,0,0,-0.13333333,0,5333.3333)" />
      <path
         id="path5"
         d="m 29745,35227.7 c -216.8,-21.1 -415.4,-70.1 -606.9,-147.6 -197.3,-79.8 -372.9,-190.7 -505.5,-361.1 -173.8,-223.5 -265.8,-480.3 -307.4,-757.4 -1.4,-8.9 7.4,-19.3 11.1,-28.3 724.1,53 1220.7,482 1408.7,1294.4 z m -4313.7,-1098.3 c 0,-24.2 -3.2,-36.1 0.5,-45.1 124.4,-309.2 310.3,-566.9 618,-716.8 307.5,-149.9 635.3,-167.7 968.9,-136.9 23.4,2.2 46,13.9 76.1,23.4 -121.9,314.8 -304.2,568.3 -599.8,728.7 -218.8,118.7 -458.2,154 -701.8,162.1 -119.6,4 -239.9,-9.7 -361.9,-15.4 z m 1421.9,2099.6 c -15,-17.1 -22.4,-21.7 -24.2,-28 -97,-346.1 -92,-683.9 91.9,-1003.4 137,-238 337.7,-415.3 561.2,-568.8 53.2,-36.6 109.9,-68.1 165.4,-102.3 12.4,18.1 21.7,26.2 24.3,36.1 76.1,287.5 88.2,573.9 -28.3,854.4 -155,372.9 -455.9,603.9 -790.3,812 z m 763.9,-3854.6 c 0,153.9 2.2,293 -2.3,431.9 -0.7,22.2 -27,51.1 -49,63.7 -99,56.6 -199.3,111.3 -302.2,160.2 -34.2,16.3 -77.8,19 -116.8,17.7 -154.3,-4.8 -308.7,-22.4 -462.7,-18.9 -233.1,5.2 -460.9,47.6 -675.5,144.4 -374.5,169 -606.7,467 -756.3,838.5 -20.5,50.9 -37.9,104.2 -47.4,158 -14.3,80.7 12.8,120.7 94.3,130.2 149.6,17.2 300.1,36.9 450.3,37.1 179.9,0.2 359.6,-20 534.9,-67.4 403.9,-109 695.4,-356.4 889.6,-722.5 39.5,-74.6 76.6,-151.6 103.2,-231.4 21.4,-64 53.8,-108.4 115.2,-136.6 69.7,-32.1 136.7,-70 215.6,-110.9 3.9,38 9.1,65.2 9.1,92.5 0.5,357.1 -1.5,714.3 1.8,1071.4 0.6,68.4 -23.8,104.8 -81.9,137.5 -282,159.3 -528.5,361.6 -717,627.6 -210.3,296.6 -277.6,630.4 -231,986 17.5,133.8 57.1,265.5 96.2,395.3 27.1,90.2 79.9,111.9 160.5,69.6 374,-196.9 702.2,-447.2 912.6,-824.4 150.6,-269.8 192.3,-562 147.5,-865.3 -17.6,-119.4 -53.5,-236 -80.5,-354 -6.6,-28.4 -15.9,-57.3 -16,-86 -0.8,-235.6 0.2,-471.2 1,-706.8 0,-7 3.9,-13.9 8.5,-29.2 18.2,10.7 37.5,17.5 50.9,30.5 68.6,66.7 134.9,135.9 203.8,202.2 33.6,32.4 48.5,68.3 54.1,115.5 27.8,235.5 90.2,461.3 201.6,672.2 145.9,276.3 358.5,481.3 642.5,613.9 270.4,126.2 555.2,192.1 851.3,211.2 131.9,8.5 165.6,-35 137.8,-164.8 -60.5,-283.4 -166.1,-548.9 -321.2,-793.8 -237.8,-375.5 -586.1,-591.4 -1012.2,-690.1 -100,-23.2 -202.8,-35.5 -304.9,-47.6 -42.6,-5.1 -76.1,-17.2 -106.5,-48.3 -118.6,-120.9 -240.3,-238.7 -357.8,-360.6 -23.5,-24.4 -47.2,-61.6 -47.4,-93 -2.3,-276 0.8,-552.1 2.5,-828.1 0,-3.1 3.3,-6.2 12.5,-22.1 34.3,-1.6 77,-5.4 119.6,-5.4 508.1,-0.3 1016.3,0.1 1524.4,-0.2 36.6,0 74.3,1.4 109.7,-6.1 50.4,-10.7 73.8,-47.4 71,-96.9 -3,-50.9 -27.5,-77.6 -83.4,-84.9 -29,-3.8 -58.8,-2.3 -88.2,-2.3 -1167.2,-0.2 -2334.4,-0.3 -3501.6,-0.2 -29.4,0 -59.4,-2.1 -88.1,2.6 -48.4,7.9 -81.7,46.4 -81,90.9 0.6,46.1 25.4,78.9 69.4,87.6 42.8,8.4 87.6,9.4 131.5,9.4 497,0.5 994.1,0.2 1491.2,0.2 32.8,0 65.7,0 116.8,0"
         style="fill:#323293;fill-opacity:1;fill-rule:nonzero;stroke:none"
         transform="matrix(0.13333333,0,0,-0.13333333,0,5333.3333)" />
      <path
         id="path6"
         d="m 11331.9,11966.5 c -48.1,296.4 -146.3,547.9 -374.3,731.7 -176.1,142 -500.8,260.8 -651.9,237.9 39.6,-192.9 109.6,-372.2 213.8,-538.7 103,-164.7 246.3,-281.5 425.1,-353.7 118.7,-48 241.9,-78.8 387.3,-77.2 z m -38.7,2369.3 c -72.5,-118.4 -88.3,-497.9 -25.3,-720.6 77.5,-274 254.4,-473.4 482,-637.9 223,497.2 83.2,996.9 -456.7,1358.5 z m 1332.4,-1325.2 c -21.1,-32.7 -37.8,-55.8 -51.6,-80.5 -64.7,-115.5 -128.5,-231.6 -192.8,-347.4 -225,-405.3 -451.4,-809.8 -674.4,-1216.2 -126.4,-230.3 -172.1,-475.4 -115.9,-735.7 121.4,-562.4 658.2,-935.3 1245.4,-820.5 673.8,131.7 1073.7,898.6 715.2,1548.6 -289.6,525.2 -581.3,1049.2 -872.5,1573.5 -13.7,24.6 -31.8,46.7 -53.4,78.2 z m -581.8,-636.3 c 60.8,108.2 121.8,216.1 182.2,324.4 100.4,180 201.9,359.3 299.7,540.7 32.3,59.9 76.9,80.7 142.7,80.3 419.7,-2.1 839.4,-1.8 1259.1,-2.6 29.4,0 59.3,1 88.2,-3.5 53.6,-8.3 78.9,-39.3 78.5,-89.3 -0.5,-50.4 -26.4,-82.2 -78.7,-89.2 -32.6,-4.3 -66.1,-2.8 -99.2,-2.8 -327.7,-0.2 -655.4,-0.1 -983.1,-0.2 -39.6,0 -79.2,0 -130,0 12.1,-34.3 16.4,-55.3 26.3,-73.2 92.2,-167.7 187.4,-333.7 276.8,-502.8 27.9,-52.9 60.7,-73.3 120.5,-72.5 231.9,3 463.9,1.9 695.8,0.5 39.8,-0.3 80.6,-5.8 119,-16 40.6,-10.7 57.6,-46.5 55.3,-85.5 -2.5,-43.4 -24.2,-78.5 -71.2,-86.2 -28.8,-4.8 -58.7,-4.2 -88.1,-4.2 -184.1,-0.3 -368.2,0.3 -552.2,-0.2 -35.4,-0.1 -70.7,-3.3 -118.8,-5.7 19.1,-41.6 30.7,-71.5 46,-99.3 86.9,-158.1 177.1,-314.3 260.6,-474.1 28.5,-54.6 64.3,-72.1 122.4,-69.5 84.5,3.6 169.3,1.3 254,0.4 25.5,-0.3 52,-1.1 76.3,-8 51.2,-14.3 72.1,-47.6 67.7,-99.1 -4,-46.9 -30.5,-76.1 -75.9,-80.6 -51.1,-5.1 -102.9,-3.4 -154.4,-4.1 -39.3,-0.5 -78.5,-0.1 -134.5,-0.1 172.4,-373.1 200.4,-736 43.2,-1103.3 -104.8,-244.9 -273.5,-434.6 -500.2,-572.3 -469.6,-285.3 -1065.8,-221.3 -1460.9,123.9 -239,208.8 -380.6,471.8 -423.5,788.8 -43,317.9 43.9,603.7 210.9,878.2 -59.8,60.4 -113.2,121.2 -174.5,172.5 -24.6,20.6 -66.2,26.1 -100.8,28.8 -215.3,17 -421.2,63.4 -609.2,175.7 -199.9,119.3 -338,292.6 -440.7,497 -88.1,175.5 -141.7,362.5 -176.6,555.1 -3.3,18.1 -4.6,36.7 -4.5,55 0.4,76.9 28.7,109.5 107.2,106.6 73.1,-2.8 146.5,-13.3 218.6,-26.5 182.2,-33.2 355.8,-91.7 516.5,-185.3 320.9,-186.8 491.3,-476.3 566.7,-830.5 5.4,-25.2 9.9,-50.5 14.4,-75.9 28.4,-162.7 33.7,-171.4 180.2,-283.2 33.4,55.6 62.3,113.4 100.1,164.6 85.3,115.6 101.4,233.2 50.7,371.2 -45.4,123.5 -68,255.4 -99.4,383.9 -13.5,55.5 -39.3,96.5 -89.8,130.8 -175.2,119 -322.5,267.2 -437.7,446.3 -101.7,158.3 -157.5,332.4 -174.4,517.9 -22.2,244.2 3.8,484.7 69,721.3 34.7,126.1 110.3,131.4 196.2,73.8 209.7,-140.5 396.6,-303.3 541.6,-512.9 183.2,-264.8 218.6,-557.3 167.5,-865 -17.3,-104.4 -57.1,-205 -81.4,-308.5 -10.5,-44.7 -17.9,-94.7 -8.7,-138.5 25.6,-122 60.5,-241.9 91.8,-362.7 7.6,-1.4 15.1,-2.9 22.7,-4.4"
         style="fill:#323293;fill-opacity:1;fill-rule:nonzero;stroke:none"
         transform="matrix(0.13333333,0,0,-0.13333333,0,5333.3333)" />
      <path
         id="path7"
         d="m 6002.45,13131.6 c 551.81,112.8 868.19,558.6 844.06,1128.7 -251.43,-90.7 -481.22,-208.9 -650.21,-417.9 -164.96,-204 -216.92,-442.9 -193.85,-710.8 z M 4027.36,12323 c -50.05,297.4 -155.05,553.1 -395,735.5 -178.5,135.7 -527.66,248.4 -673.7,220.8 138.8,-583.6 527.91,-919.8 1068.7,-956.3 z m 650.9,163.2 c 0.1,0 0.2,0 0.3,0 0,-316.6 -2.68,-633.3 1.68,-949.8 1.26,-92 -27.98,-143.9 -111.13,-191.2 -301.11,-171.3 -455.93,-440.7 -442.64,-784.1 18.63,-481.2 431.89,-874.3 972.98,-806.5 356.19,44.6 647.76,328.3 719.49,686 69.97,349 -101.11,726.2 -420.81,898.5 -96.41,51.9 -125.88,114.2 -125.25,217.9 3.79,618.5 2.15,1237 2.23,1855.6 0.01,36.8 1.36,73.7 -1.66,110.3 -12.11,146.2 -126.54,260.7 -271.99,273.9 -140.14,12.7 -276.69,-86.4 -309.55,-229.5 -10.57,-46 -12.93,-94.7 -13.09,-142.3 -1.1,-312.9 -0.56,-625.8 -0.56,-938.8 z m 813.98,128.2 c 98.36,127.6 199.41,253.3 293,384.3 20.5,28.7 20.35,76.5 19.54,115.2 -2.91,140.1 -2.2,279.3 31.05,416.8 76.06,314.7 264.2,545.4 533.68,714.9 153.42,96.5 318.27,168.7 491.4,222.1 7.03,2.1 13.94,4.8 21.07,6.5 119.19,29.9 170.06,-4.4 171.39,-125.9 1,-91.7 -5.26,-184 -15.85,-275.2 -27.06,-233 -90.04,-454.9 -227.81,-648.9 -159.45,-224.6 -376.95,-375.1 -638.69,-447.6 -154.96,-42.9 -265.63,-119.2 -353.86,-251.5 -93.7,-140.5 -203.77,-270.2 -309.01,-402.8 -29.39,-37 -40.81,-74.7 -40.41,-121.4 1.7,-198.8 2.75,-397.6 -0.86,-596.4 -1.07,-59.3 20.4,-91.2 69.49,-123.1 377.81,-245.6 553.97,-665.6 464.6,-1096.8 -88.26,-425.9 -422.37,-752.4 -867,-818.2 -613.3,-90.8 -1114.16,346.9 -1185.75,869.6 -61.48,448.9 107.74,796.9 478.41,1051.1 80.66,55.3 98.55,174.6 29.78,246.5 -111.98,116.9 -229.7,228.3 -342.76,344.2 -31.52,32.3 -67.64,38.1 -108.76,43.2 -247.85,30.7 -480.97,103 -688.4,247.4 -179.82,125.2 -314.32,290.6 -405.23,486.6 -67.71,145.9 -113.82,301.9 -168.74,453.7 -6.16,17.1 -8.06,35.9 -10.15,54.1 -12.23,106.2 21.81,148 126.99,139.4 102.41,-8.4 204.85,-23.2 305.59,-43.6 151.79,-30.6 297.83,-80.1 435.54,-152.9 322.06,-170.3 495.25,-450.4 585.29,-791.6 16.85,-63.8 35.57,-129.2 37.64,-194.3 2.37,-74.7 38.96,-122.5 88.78,-168.7 52.44,-48.7 102.17,-100.4 153.09,-150.8 7.67,3.3 15.34,6.5 23.02,9.8 1.75,42.3 5.02,84.7 5.03,127.1 0.18,445.4 1.17,890.9 -1.09,1336.3 -0.8,156.2 45.61,290.9 165.39,392.9 153.8,130.9 328.62,162.2 514.47,79.8 189.25,-83.8 289.48,-237 294.54,-442.3 6.26,-253.9 1.49,-508 1.49,-762 0,-40 0,-80.1 0,-120.1 8.03,-2.4 16.06,-4.9 24.1,-7.4"
         style="fill:#323293;fill-opacity:1;fill-rule:nonzero;stroke:none"
         transform="matrix(0.13333333,0,0,-0.13333333,0,5333.3333)" />
      <path
         id="path8"
         d="m 10690.3,27193.3 c -63.6,-372.1 50.7,-1120.5 351.3,-1567.4 265.5,-394.8 915.7,-863.6 1270.9,-904.3 -24.8,37.1 -45.9,70.3 -68.6,102.4 -267.5,378.6 -535.3,757 -802.7,1135.6 -17,24 -34.9,47.9 -47.3,74.3 -21.9,46.6 -9.7,89.4 28.7,116.5 37.6,26.5 86.6,24.2 121.1,-10.3 20.5,-20.6 35.7,-46.6 52.7,-70.6 276.8,-390.1 553.4,-780.3 830.4,-1170.1 13.6,-19.1 31.1,-35.3 53.6,-60.4 22.6,1133.6 -549.8,1991.1 -1790.1,2354.3 z m 2126.5,-2442.7 c 209.4,68.3 389,175.7 561,295.6 330.5,230.4 610.9,508.6 802.6,867.2 149.3,279.4 230.3,579.7 267.3,893.3 33.4,283.1 29.7,565.6 -3,848.2 -4.1,35.2 -12.7,69.8 -20.2,110.4 -24.1,-5.9 -38.2,-7.3 -50.7,-12.7 -491.5,-209.3 -927.4,-496.1 -1266.6,-915.8 -168.8,-208.8 -292.3,-441.1 -355.6,-703.6 -5.1,-21.4 -8.3,-43.8 -16.9,-63.9 -19.1,-45.1 -63.4,-67.5 -106.9,-57 -44.2,10.7 -78.9,50.6 -73.9,96.8 5.1,47.2 17.1,94 30.2,139.8 105.6,371.1 315.3,679.1 586.5,946.9 351,346.4 763.7,597.3 1223.8,772 17.2,6.5 34.4,13.1 52,18.4 88.1,26.3 129.4,3.2 151.9,-88.6 12.2,-49.9 21.6,-100.8 28.4,-151.7 73.1,-551.2 49.9,-1094.5 -142,-1622.1 -153.5,-422 -415.5,-767.7 -757.8,-1054.3 -319,-267.2 -674.8,-471.3 -1064.9,-616.4 -58,-21.5 -111,-23.4 -171.3,-7.1 -458.2,124.1 -873.6,330.2 -1232.3,643.1 -325.3,283.8 -536.2,640.7 -658.1,1052.9 -111,375.7 -134.6,759.4 -110,1147.7 7.3,114.6 52.5,148.7 168,117.5 460.9,-124.7 881.5,-327.5 1243.6,-644.1 405.4,-354.5 629.9,-807.8 725.8,-1329.9 25.1,-137 33.4,-277.1 49.7,-415.7 2.1,-17.3 6,-34.5 10.9,-62.5 51.7,30.2 64.7,78.1 86.7,116.5 294.5,514.2 587.7,1029.1 881.4,1543.8 14.5,25.5 27.8,52.4 46.2,75 30.6,37.7 79.5,46.4 119.4,25.9 38.9,-20.1 57.5,-65.7 42.1,-114 -7.7,-24.2 -22.2,-46.3 -34.9,-68.6 -318.7,-559.7 -637.6,-1119.3 -956.3,-1678.9 -19.5,-34.3 -37.4,-69.4 -56.1,-104.1"
         style="fill:#323293;fill-opacity:1;fill-rule:nonzero;stroke:none"
         transform="matrix(0.13333333,0,0,-0.13333333,0,5333.3333)" />
      <path
         id="path9"
         d="m 26820.9,14127 c 0,-136.2 0,-273.7 0,-409.8 129.1,-24.5 1455.3,-19 1527.8,4.2 0,135.6 0,270.3 0,402.4 -95.1,27.4 -1422.3,29.3 -1527.8,3.2 z m -462.8,-3692.6 c 0,-88 -8.6,-162.6 2.6,-234 9.9,-63.3 31.7,-129.7 66.4,-182.9 58.5,-89.6 151.9,-118.5 258.8,-118 452.6,2.1 905.1,0.9 1357.6,0.9 154.5,0 309.1,-2.3 463.6,0.5 154.5,2.8 273.5,97.2 294.6,245.7 13,92.4 2.4,188.1 2.4,287.8 -817.4,0 -1624.7,0 -2446,0 z m 810.4,3072 c 0,-148.7 -6.5,-284.7 2.1,-419.8 6.5,-102.6 -35.5,-154.2 -126.8,-189.5 -126.6,-49.1 -251.7,-103.6 -372.9,-164.7 -214.6,-108.2 -314.4,-288.2 -313.9,-527.7 1.2,-489.3 0.4,-978.6 0.9,-1467.9 0,-31.8 4.3,-63.7 6.7,-97 816.9,0 1624.4,0 2438.6,0 2.3,42.1 5.9,78 5.9,113.9 0.2,478.2 -5.5,956.6 1.9,1434.7 4.3,283.9 -128.7,465.2 -377.2,576.9 -110.6,49.7 -220.9,100.4 -333.8,144.5 -77.2,30.1 -106.2,81.1 -104.1,161 3.1,117.7 1.4,235.5 0.2,353.2 -0.3,27.6 -6.9,55.1 -10.7,82.4 -273.1,0 -536.7,0 -816.9,0 z m -197.2,-427.6 c 0,145.6 0,280.8 0,428.6 -68.6,1.5 -133.2,3.3 -197.9,4.4 -125.1,2 -149.5,24.8 -150,148 -0.9,180.3 -1.3,360.7 0.4,541.1 0.9,105 25.5,130.6 131.7,130.8 555.8,1 1111.6,0.9 1667.4,-0.5 95.4,-0.2 118.1,-23.8 119.1,-117.8 1.9,-191.4 2.1,-382.8 0.5,-574.2 -0.8,-104.2 -24.9,-125.4 -133.8,-127.1 -65.9,-1.1 -131.8,-0.2 -201.6,-0.2 -6.7,-26.8 -16,-47.1 -16.3,-67.5 -1.4,-99.4 0.7,-198.8 -0.7,-298.1 -0.7,-46 15.3,-74 60.5,-91.9 95.6,-37.9 190.7,-78.1 283,-123.4 201.5,-98.9 365.6,-235.9 430.4,-461.6 19.1,-66.5 34.4,-136.9 34.7,-205.6 2.8,-688.3 4.5,-1376.6 1.2,-2064.9 -1.3,-278.6 -212.9,-488.3 -491.7,-489.7 -614.7,-3.1 -1229.4,2.8 -1844,-2.3 -282.3,-2.3 -496.6,249.1 -493.8,499.7 7.7,680.9 3.6,1361.9 2.1,2042.8 -0.5,261.7 111.1,462.9 327.8,601 107.7,68.6 228.7,116.5 344.1,172.8 39.4,19.2 80.3,35.3 126.9,55.6"
         style="fill:#323293;fill-opacity:1;fill-rule:nonzero;stroke:none"
         transform="matrix(0.13333333,0,0,-0.13333333,0,5333.3333)" />
      <path
         id="path10"
         d="m 11084.8,19085.5 c 23.9,103.7 23.4,1542.4 -0.6,1641.4 -172.2,0 -346.1,0 -526.1,0 0,-549.9 0,-1092.2 0,-1641.4 177.7,0 349,0 526.7,0 z m 3484.3,-423.5 c 0,9.3 1.6,20.2 -0.2,30.5 -49.4,278.5 -97.7,557.2 -150.3,835.1 -9.3,49.2 -31.9,97.8 -56.5,142.1 -125.2,225 -250.3,450.1 -380.9,672 -120.5,204.6 -291.9,323.2 -542,311.3 -389.5,-18.6 -779.3,-31 -1169,-44.8 -290.5,-10.3 -581,-18.4 -871.5,-28.3 -35,-1.2 -69.8,-7.9 -101,-11.6 -5.5,-23.8 -10,-34.4 -10.1,-45.1 -0.7,-334.9 -2.1,-669.8 0.2,-1004.7 0.2,-38.3 15.4,-79.8 34.2,-114 66.1,-120.9 154.5,-223.6 268.4,-302.9 183,-127.3 389.9,-167.9 607.6,-161.5 82.5,2.4 159.6,-10.6 237.7,-35.4 367.9,-116.5 736.6,-230.4 1105.1,-344.9 36.8,-11.5 74.3,-20.9 121.1,-34 5.7,52 11.7,87.6 13.3,123.5 10.8,245.8 -64.5,352.5 -285.7,415.8 -194.1,55.6 -383.1,128.8 -573.9,195.6 -97.9,34.2 -111.8,59 -98.1,164.4 16.4,127.6 35.4,254.9 50.1,382.6 8,69.9 38.9,112.7 108.6,135 174.9,55.8 347.8,117.9 522.1,175.7 105.2,35 118.2,30.5 185.7,-59.2 148.2,-197 297.4,-393.4 441.6,-593.2 35.6,-49.3 61.4,-108.7 79.1,-167.2 51.1,-168.8 90,-341.3 144.6,-508.8 48,-147.3 168.2,-191.2 319.8,-128 z m -1656.1,770.1 c 203.4,-70.9 392,-144.2 585.2,-202 254.3,-76 368.6,-266.4 368.4,-512.3 0,-91.3 -9.3,-183.8 -26.6,-273.5 -26.4,-137.2 -66.9,-157.5 -200.9,-116.3 -224.8,69.2 -449.5,138.8 -674.1,209.1 -192.9,60.4 -384.8,124.3 -578.6,181.5 -62.3,18.4 -129.4,28.5 -194.2,28.3 -144.7,-0.5 -286.5,15.4 -424.8,56.8 -146.7,43.9 -276.2,119.6 -390.3,221.7 -21.3,19 -43.9,36.4 -76.6,63.4 -6,-34.7 -11.7,-57.7 -13.8,-81 -9,-96.7 -32.1,-119.3 -131.3,-122.2 -51.5,-1.6 -103.1,-0.3 -154.6,-0.3 -165.7,0 -331.3,-1 -496.9,0.3 -114.9,1 -145.1,30.5 -145.2,143.7 -0.4,585.3 -0.2,1170.5 0.7,1755.7 0.2,102.6 29.7,137.7 127.5,138.7 220.8,2.3 441.6,-0.7 662.4,-1.7 14.7,-0.1 29.4,-2.3 44,-3.4 55.5,-4 88.8,-30.5 92.5,-88.9 1.2,-17.5 5.8,-34.7 10.5,-61.6 209.9,6.9 415.1,13.6 620.2,20.7 22,0.7 44,4.6 66,5.4 485.4,16.8 970.9,31.3 1456.2,50.8 321.9,13 548.6,-137 706.7,-403.6 129.4,-218.3 248.8,-442.5 377.3,-661.4 47.5,-81 76.4,-165.4 92.4,-256.7 47.8,-271.4 96.9,-542.5 146.7,-813.5 35.8,-194.9 23.3,-214.9 -167.4,-251.6 -25.3,-4.8 -50.5,-10.5 -76,-13.2 -221.7,-23.2 -390.6,83.6 -456.9,296.3 -47,150.8 -86.6,304 -126.6,456.8 -18.9,72.2 -46.8,137.6 -92.9,197.4 -116.8,151.6 -229.6,306.2 -344.9,458.9 -56.7,75.3 -57.9,75.6 -145,46.8 -111.7,-37.1 -222.4,-77.1 -334.5,-113.1 -39,-12.6 -65.2,-31.4 -70.2,-74 -10.8,-90.7 -22.1,-181.3 -34.4,-282"
         style="fill:#323293;fill-opacity:1;fill-rule:nonzero;stroke:none"
         transform="matrix(0.13333333,0,0,-0.13333333,0,5333.3333)" />
      <path
         id="path11"
         d="m 35193.6,33924.9 c 74.9,4.8 121.3,7.9 167.8,10.8 102.8,6.6 205.5,16.1 308.4,18.5 62.2,1.5 94.5,-30.6 97.8,-81.4 3.5,-52.5 -24.1,-87 -81.5,-99 -25.2,-5.2 -50.9,-8.4 -76.6,-10.4 -154.1,-11.6 -308.1,-24.3 -462.3,-33.3 -113.2,-6.6 -216.9,-26 -286.3,-130.4 -24,-36.1 -61.1,-63.5 -92.2,-94.7 -343,-344.1 -686.1,-688 -1028.6,-1032.6 -15.5,-15.6 -25.5,-36.7 -46.1,-67.1 456.6,70.1 878,193.3 1278.2,386.3 555.8,268 995.6,660.9 1300.4,1201.6 256.3,454.4 406.5,943.6 490.3,1455.5 11.6,70.8 16,142.8 24.2,218.4 -27.9,2.2 -42.3,6 -56,4.1 -420.7,-57.2 -829.5,-158 -1222,-323.4 -675.8,-284.6 -1199.7,-735.3 -1538.8,-1391.4 -207.9,-402.1 -340.8,-828.6 -416.9,-1273.7 -6.1,-36.1 -8.5,-72.8 -13.9,-119.8 24,14.2 34.9,18.1 42.3,25.5 200.4,200.4 401.5,400.2 599.3,603 22.9,23.5 36.3,63.5 39.6,97.2 12.6,128 18.8,256.7 28.2,385 6.4,88 13.2,176 21.4,263.9 7.1,75.5 49.9,121.1 105.9,116 55.1,-5 86.7,-46 85.4,-119.9 -1,-58.7 -7.1,-117.4 -13,-175.9 -9.8,-96.1 -10.6,-192.2 -16.9,-309.9 40.3,36.3 62.4,54.5 82.6,74.7 218.5,218.7 434.6,439.9 656.2,655.4 63.5,61.7 87.6,128 91.9,213.7 9.1,179.9 27.7,359.3 41.2,539 3.3,43.2 13.7,79.7 58,97.3 72,28.7 137.9,-22.6 132.6,-108.3 -6.8,-110 -19.3,-219.8 -28.4,-329.7 -2.2,-26.8 -0.3,-53.9 -0.3,-103.8 43.7,40 70.8,63 95.8,88 156.4,155.9 312.3,312.3 468.5,468.4 18.2,18.2 35.7,37.8 56.5,52.4 41.2,28.9 88.3,25 120.7,-8.5 32.2,-33.2 35.3,-74.3 14.4,-112.1 -15.6,-28.2 -41.4,-51.2 -64.7,-74.5 -290.9,-292.1 -582.4,-583.7 -873.3,-875.7 -24.7,-24.8 -47.1,-51.9 -89.8,-99.2 z m 1788.9,1753.9 c -42.1,-476.2 -153.4,-935.9 -339.7,-1375.8 -185.8,-438.6 -440.9,-832.4 -795,-1155.4 -344.5,-314.2 -744.5,-536.5 -1180.9,-697.1 -361,-132.9 -733.9,-213.1 -1114.8,-259.4 -32.9,-4 -66.1,-5.4 -99.2,-6.1 -115,-2.3 -143.7,20.4 -135.8,133.1 9.8,139.2 24,278.8 48.1,416.1 82.7,470.1 225.1,920.1 451.2,1343.3 344.4,645.1 858,1104.4 1518.5,1406.5 445.6,203.7 914.7,321.9 1399.7,381.5 47.3,5.8 95.5,7.7 143.3,7.1 80.9,-1.1 106.1,-26.3 108.9,-105.6 1.1,-29.3 -2.7,-58.8 -4.3,-88.2"
         style="fill:#323293;fill-opacity:1;fill-rule:nonzero;stroke:none"
         transform="matrix(0.13333333,0,0,-0.13333333,0,5333.3333)" />
      <path
         id="path12"
         d="m 20639.7,13280.8 c 2.4,-27.7 4.4,-48.9 5.8,-70.2 16.6,-250.6 -74.4,-450.6 -295.8,-573.4 -225.1,-124.9 -445.7,-99.7 -650.3,57.8 -22.5,17.3 -46.6,32.5 -67.8,47.3 -712,-506.4 -1148.5,-1574.7 -1213.4,-2350 33.1,30.4 60.5,53.5 85.7,78.9 150.4,151.4 300,303.8 450.7,455 649.5,652.1 1299.3,1304 1949.2,1955.7 18.1,18.1 37.9,35.1 59.1,49.3 39.1,26.4 77.3,19.2 111.2,-10.8 35.4,-31.5 43.3,-78.5 15.3,-119.7 -20.4,-30 -47.6,-55.9 -73.5,-81.9 -767.2,-768.9 -1534.7,-1537.5 -2301.9,-2306.5 -50.8,-50.9 -99.6,-103.8 -149.3,-155.7 366.3,36.1 711.2,125.6 1045,264.9 -40.1,275.3 37.3,496 271.2,635.6 232.7,138.9 464.9,103 681.1,-51.4 28.6,23.7 52.9,40.4 73.2,61.1 54.1,55.2 104.1,114.6 160.2,167.5 67.7,63.8 87.4,129.5 59.2,224 -78.9,264.6 90,599.2 410.6,681.3 72.1,18.5 103.4,53.6 126.9,116.2 106,283.5 184,574.6 231.2,873.2 14,87.9 46.5,177.7 17.8,276.6 -344.5,-37.2 -675.6,-111.3 -1001.4,-224.8 z m -2310.6,-3263.4 c 0,0 -18.4,-0.7 -36.7,0.1 -79.1,3 -109.6,28.4 -108.1,106.2 1.7,84.3 10.1,168.9 21.5,252.5 73.5,540 221.9,1057.1 482.4,1538.4 203.7,376.4 466,705.1 804.8,969.7 31.9,24.9 63.6,50.5 97.8,71.8 61.5,38.1 97.7,32.5 146.1,-19 25.1,-26.8 46.5,-57.4 73.3,-82.2 130.2,-120 320.2,-134.6 469,-37.7 144.7,94.2 208.7,268.5 159.4,433.8 -8.3,28.1 -22.1,56.1 -22.7,84.5 -1.5,62.6 45.1,86.8 96.1,104.7 278,97.8 561.1,176.3 852.6,221.7 119.7,18.7 240.3,34.8 361.1,42.8 109.9,7.3 145.3,-36.1 134.3,-147.3 -46,-467.2 -147.9,-921 -322.4,-1358 -31.6,-79.1 -71,-120.2 -164.4,-131.6 -288.4,-35 -415.8,-335.7 -307.8,-541 40.2,-76.4 31.9,-138.6 -26.9,-199.5 -127.4,-132.3 -249.9,-269.4 -381.2,-397.7 -82.8,-81 -116,-74.4 -204.5,6 -236.7,215.3 -588.8,110 -652.5,-199.1 -12.7,-61.6 -2.1,-131.7 12.2,-194.6 26.3,-115.7 22.7,-136.5 -79.6,-179.2 -385.3,-160.8 -784.4,-271.2 -1199.2,-322.6 -32.8,-4.1 -65.2,-11.3 -98.1,-15.2 -29.2,-3.5 -58.7,-4.3 -106.5,-7.5"
         style="fill:#323293;fill-opacity:1;fill-rule:nonzero;stroke:none"
         transform="matrix(0.13333333,0,0,-0.13333333,0,5333.3333)" />
      <path
         id="path13"
         d="m 27454.4,24825.5 c 8.4,4.8 16.8,9.6 25.2,14.3 -104.5,481.6 -286.9,921.5 -689.7,1239.7 -319.5,252.2 -944.9,484.8 -1180.4,438.4 86.6,-534.9 256.3,-1028.1 683.4,-1395.1 268.8,-231.1 815.4,-464.7 1028.5,-441.3 -28,29.9 -51.9,56.9 -77.4,82.4 -267.6,268.6 -535.6,537 -803.3,805.6 -20.8,20.8 -42.8,40.9 -60.6,64.1 -35.2,46 -33.1,92.2 2.5,129.4 36.3,38 81.5,40.8 128,5.1 23.2,-17.9 43.6,-39.7 64.4,-60.5 169.3,-169.1 338.5,-338.3 507.5,-507.7 124.2,-124.6 248,-249.6 371.9,-374.4 z m 247.2,-69.5 c 84.4,89.5 155.1,163.7 224.9,238.6 286,307.2 571.6,614.6 857.5,921.9 17.5,18.8 34.6,38.6 54.6,54.6 35.4,28.4 74.3,30 112.1,4.4 36.5,-24.6 50.9,-75.5 27.7,-117.9 -17.4,-31.7 -43.2,-59.3 -68,-86.1 -258,-277.9 -516.6,-555.1 -774.8,-832.8 -74.1,-79.6 -147.4,-160 -212.2,-251 463.6,104.3 877.8,291.7 1181.1,671.3 289.7,362.4 408.2,787.2 461.3,1261.5 -143.3,-35.3 -264.9,-60 -383.2,-95.4 -270.2,-80.9 -522.1,-200.4 -743.9,-377.1 -229.3,-182.6 -390.4,-418.3 -519.1,-678.2 -19.6,-39.5 -33.4,-82.1 -55.6,-119.9 -25,-42.7 -73,-57.1 -114.1,-41.2 -49.3,19.1 -73.4,62.1 -59.2,115.5 8.4,31.7 23.6,61.7 37.3,91.8 259.6,570.7 687.7,956.5 1281.4,1154.4 163.4,54.5 333.4,89.9 501.1,130.9 42.4,10.4 87.7,11.6 131.7,12.4 84.9,1.6 117.5,-26.1 115,-109.8 -3,-99.1 -11,-198.4 -24.9,-296.5 -52.8,-372.7 -171,-723 -379.9,-1037.9 -245.1,-369.2 -592.6,-608.1 -1000.9,-765.6 -213.7,-82.4 -434.5,-137.9 -661.2,-168.9 -137.5,-18.7 -271.3,12.8 -404.8,37.7 -343.7,64 -665.1,185.1 -956.5,381.5 -285,192.1 -495.4,448.1 -647.5,753.5 -149.2,299.8 -230.8,619.3 -268.8,950.6 -18.4,160.9 21.4,198.8 185.7,178.5 80.2,-9.9 160.3,-22.6 239.7,-38 335.7,-64.8 651.5,-180.9 938.3,-370.1 336.7,-222.1 568.5,-529.4 724.5,-897.2 83.5,-197 144.5,-400.8 178.4,-612.4 2.2,-13.4 9,-26 22.3,-63.1"
         style="fill:#323293;fill-opacity:1;fill-rule:nonzero;stroke:none"
         transform="matrix(0.13333333,0,0,-0.13333333,0,5333.3333)" />
      <path
         id="path14"
         d="m 36724.9,24626.9 c -24.6,45.9 -41.4,78 -58.9,109.8 -80.6,146.2 -141.2,299.8 -156.9,467.2 -13,139.1 -26.3,278.6 -28.7,418.1 -5,290.7 -2.7,581.6 -3.8,872.4 -1.1,326.2 -82.8,633.3 -228.2,923.2 -127.8,254.8 -301.9,470.7 -554.4,613.3 -475,268.4 -1238.7,241 -1670.4,-398.4 -239.2,-354.2 -354.9,-746.7 -357.6,-1174.9 -2.3,-375.2 -12.2,-750.3 -19.8,-1125.5 -4.6,-225.8 -71.9,-433.6 -185.2,-627.7 -12.6,-21.5 -22.1,-44.7 -38,-77.5 1101.1,0 2192,0 3301.9,0 z m -2019.3,3728.8 c -106.8,143.7 -209.7,282.1 -312.5,420.6 -19.7,26.6 -41,52.2 -58.5,80.2 -37.1,59.4 -29.2,113.1 19.1,145.3 44,29.4 91.7,21.4 134,-32.9 90.5,-116.1 177.3,-235 265.2,-353 39.5,-53.1 78,-107 117.1,-160.5 10.9,-14.8 21.4,-30.1 33.7,-43.7 47.4,-52.6 293.8,-49.8 335.6,7.9 108,148.9 212.4,300.4 317.6,451.3 5.8,8.2 5.8,20.5 13,48 -48.9,-8.3 -93.6,-6.9 -129.6,-23.8 -72.8,-34.2 -143.2,-74.9 -210.4,-119.3 -136.3,-90.1 -271.2,-70.5 -407.8,-4.2 -3.3,1.6 -6.2,3.9 -9.2,6.1 -50,35.1 -64.8,76.4 -43.8,122.2 21.7,47.4 62.7,65.2 119.8,49.9 17.6,-4.7 33.9,-14.1 50.8,-21.4 73.6,-32 138.4,-21.1 208.1,22 89.9,55.6 184.9,106.4 283.8,143 100,36.9 204,26.1 294.4,-39.7 94.8,-69 105.4,-127.1 39.1,-223.7 -72.9,-106.2 -149,-210 -223.3,-315.2 -35.8,-50.8 -70.6,-102.2 -111.4,-161.4 28.7,-13.5 49.1,-26.7 71.5,-33.1 354.4,-100.7 616.2,-323.7 810.2,-628 241.4,-378.4 357.2,-795.5 357,-1244.7 -0.1,-279.8 -1.6,-559.6 3.5,-839.2 2.5,-135.8 13.8,-272 29.8,-407 24.7,-207 130.3,-380.6 242.5,-550.2 18.2,-27.6 40.5,-53.1 54.9,-82.5 31.7,-64.6 -2.2,-127.6 -73.3,-138.3 -25.2,-3.8 -51.4,-1.9 -77.1,-1.9 -1185.4,-0.1 -2370.7,-0.2 -3556,0 -53.9,0 -114.8,-13.3 -147.1,48.8 -33.5,64.4 6.4,112.3 42.3,159.6 194.2,255.9 280,546.8 281.4,865.5 1.4,331.2 2.3,662.5 6.1,993.8 4.8,417.8 117.7,805.7 334.4,1162.4 196.4,323.3 467.5,555.1 834.8,665.1 14,4.2 27.6,9.5 41.2,14.9 3.2,1.2 5.6,4.8 19.1,17.1"
         style="fill:#323293;fill-opacity:1;fill-rule:nonzero;stroke:none"
         transform="matrix(0.13333333,0,0,-0.13333333,0,5333.3333)" />
      <path
         id="path15"
         d="m 33550.2,17223.1 c 31.8,196.3 38.6,1364.1 10,1450.8 -130.8,0 -261.8,0 -391.2,0 -24,-116.9 -19.4,-1363.8 5.4,-1450.8 122.2,0 245.9,0 375.8,0 z m 3397.2,1399.3 c -104.1,90.2 -216,133.2 -340.6,89.2 -88.4,-31.2 -176.8,-76.5 -250,-134.6 -187.2,-148.7 -367.2,-306.9 -547.8,-463.8 -87.3,-75.9 -184.5,-117.4 -300.8,-116.8 -209.9,1.1 -419.8,0.2 -629.7,0.4 -18.4,0 -37.1,-0.6 -55.1,2.4 -53.7,9 -82.8,38.9 -85.9,85.5 -3.1,47.1 31.6,91.6 83.4,101.5 25,4.7 51.4,2.3 77.1,2.4 198.9,0.2 397.8,1.7 596.6,-0.3 88.3,-0.8 157,31.9 209.2,101.8 54.2,72.6 79.3,155 88.6,260.1 -44.9,0 -84.1,0 -123.3,0 -257.8,0 -515.6,1.8 -773.4,-0.8 -111.4,-1.1 -220.2,-0.7 -319,62.2 -24.2,15.4 -54.5,22 -82.7,30.4 -253.9,75.7 -479.3,32.6 -670.4,-159.4 -36.2,-36.4 -53.1,-75 -53.6,-126.7 -2.9,-279.7 -8.6,-559.5 -12.6,-839.2 -0.4,-32.1 4,-64.2 6.8,-104.2 38.9,-3.9 70.8,-9.9 102.8,-9.9 504.5,-0.7 1009,-1.9 1513.5,0 222.5,0.8 413.2,74.9 574.4,237.6 303.2,305.9 615.2,603 923.2,904.2 23,22.5 43,48.2 69.3,78 z m -3164.7,103.9 c 114.8,44.2 221,96.8 333.2,125.5 184.9,47.2 365.9,9.5 538,-65.4 72.7,-31.7 145,-44.7 223.8,-44.2 316.6,2 633.1,0.3 949.7,-0.1 153.3,-0.3 167.8,-15 170.8,-170 0.1,-5.8 7.2,-11.4 17.2,-26.2 64.4,54.1 128,108 192.1,161.3 111.5,92.7 231.5,169.1 376.9,198 229.4,45.6 411.5,-39 560.5,-206.8 58.6,-66 51.2,-108.4 -21.2,-179.9 -219.8,-217.4 -440.2,-434.1 -661.3,-650.2 -134.2,-131.2 -272.5,-258.2 -404.4,-391.7 -175.8,-177.9 -387.9,-257.8 -635.5,-257.1 -508,1.5 -1016,0.5 -1524,0.6 -43,0 -85.9,0 -133.5,0 -4.3,-43.1 -6.4,-71.7 -10.2,-100 -9,-66.2 -32.1,-92.8 -99.4,-93.7 -198.7,-2.7 -397.5,-2.8 -596.3,-0.2 -65.7,0.9 -89.7,30.1 -95.8,96.8 -2,22 -0.7,44.2 -0.7,66.3 0,508 -0.1,1016 0.2,1524 0.1,134.2 23.1,156.8 162.7,157.5 158.3,0.9 316.6,0.6 474.9,-0.1 139.9,-0.6 154.2,-12.7 182.3,-144.4"
         style="fill:#323293;fill-opacity:1;fill-rule:nonzero;stroke:none"
         transform="matrix(0.13333333,0,0,-0.13333333,0,5333.3333)" />
      <path
         id="path16"
         d="m 35687.7,20084.3 c 487.4,33.8 913,425.7 949.6,867.1 -572.2,-36.7 -897.3,-384.9 -949.6,-867.1 z m -2112.3,75.1 c 154.4,-379.6 433.1,-567.8 824.6,-595.9 101.1,-7.3 203.2,-9.6 304.9,6.1 0,21.6 3.4,33.7 -0.6,42.7 -93.1,212.7 -232.5,383.6 -450,477.9 -200.3,86.9 -411.9,103.8 -627.3,86.6 -13.6,-1.1 -26.7,-8.8 -51.6,-17.4 z m 1568.3,376.1 c 7.9,16 19.6,31.1 23.2,47.9 31.6,145.3 39.1,291.4 -1.5,435.8 -86.2,306.4 -301.2,502.4 -567.7,652.9 -2.7,1.5 -7.2,-0.3 -10.9,-0.5 -149.7,-472.6 93.1,-893.2 556.9,-1136.1 z m 158,-688.4 c 101.4,88.7 178.1,150.8 191.9,278.6 22,202.6 99,391.2 218.8,559.3 107.5,150.6 249.3,258.6 416.7,334.7 193.2,87.9 397.8,129.9 607.5,149.7 104.4,9.9 154.4,-35.9 132.7,-134.2 -84,-379.7 -237.2,-720.1 -574.6,-946.3 -184.4,-123.7 -393.5,-179.9 -610.8,-206.9 -55.1,-6.9 -96.1,-24.9 -133.2,-65.3 -59.6,-65.1 -120.3,-129.9 -186.7,-187.7 -49.7,-43.3 -64.5,-91.8 -63.3,-154.7 2.8,-158.2 0.9,-316.6 0.8,-474.9 -0.1,-25.7 1.7,-51.8 -1.7,-77.2 -7.5,-56.7 -42.6,-88.3 -94.2,-88.8 -50.9,-0.4 -89.9,31.4 -95.4,87.2 -5,51.1 -1.7,103 -1.9,154.5 -0.1,54.9 0,109.7 0,168.6 -81.2,43.8 -156.2,90.5 -236.5,124.8 -37.3,16 -85.5,14.3 -127.7,9.9 -240.6,-25.4 -478.9,-18.4 -708,64.7 -360.7,130.9 -570,402 -678.7,759.6 -24.2,79.5 -1.4,126.5 77.1,138.8 419.8,65.8 823.9,47.9 1165.8,-250 135.9,-118.5 226.9,-269.6 296.6,-433.9 53.1,-125.3 61.7,-134.4 206.4,-176.5 1.7,34.1 4.6,66.4 4.7,98.7 0.4,213.5 -2.6,427.1 1.9,640.5 1.5,71 -18.3,113.1 -82.1,149.9 -189.7,109.6 -356.4,249 -484,428.8 -231.2,325.6 -238.6,677.7 -111,1041.6 29.8,85.2 77.8,104.2 154.3,64.9 259.2,-133.3 484.3,-307.4 642.7,-557.1 173.1,-272.9 189.2,-567.9 107.8,-870.7 -25.3,-94.2 -38,-186 -36.4,-282.1 1.9,-108.5 0.5,-217.1 0.5,-348.5"
         style="fill:#323293;fill-opacity:1;fill-rule:nonzero;stroke:none"
         transform="matrix(0.13333333,0,0,-0.13333333,0,5333.3333)" />
      <path
         id="path17"
         d="m 18243.6,19064 c 79.6,-537.1 244,-1032.7 632.2,-1426.1 344.3,-349 780.2,-515.5 1256.1,-596.7 -38.9,56.8 -83.5,104.8 -129.9,150.9 -282.2,280.1 -564.8,559.7 -847,839.8 -23.4,23.3 -47.9,46.5 -66.1,73.7 -30,44.8 -24.2,84.7 11,119.8 35.7,35.6 74.9,41 119.1,9 32.6,-23.5 60.8,-53.3 89.4,-81.8 302.6,-301.3 604.8,-603 907.5,-904.1 21,-20.9 44.9,-38.8 79,-68 -187.1,1093.9 -876.3,1767.8 -2051.3,1883.5 z m 2071,-2258 c -533.8,62.2 -1076,237.4 -1521.7,643.1 -232.3,211.3 -396.6,472.2 -519.1,760 -113.1,265.7 -183.3,543 -221.4,828.6 -5.3,40 -6.8,80.8 -6.4,121.2 0.8,89.7 28.8,120.9 121.5,113.8 117,-8.9 234.4,-22.8 349.5,-45.3 357.1,-69.7 694.1,-192.7 999.6,-393.9 416.7,-274.5 679.4,-664.7 845.6,-1127.2 88.6,-246.9 141.4,-501.8 168.5,-762.2 11.5,-111.5 -30.1,-146.6 -216.1,-138.1"
         style="fill:#323293;fill-opacity:1;fill-rule:nonzero;stroke:none"
         transform="matrix(0.13333333,0,0,-0.13333333,0,5333.3333)" />
      <path
         id="path18"
         d="m 18090.4,26709.7 c 0,-38.7 -1.9,-53.4 0.4,-67.5 34.9,-214.5 84.7,-425.2 162.5,-628.5 130.9,-342.3 318.4,-645.7 608.8,-877.4 312,-249 674.1,-385 1059.5,-467.6 15.9,-3.4 33.5,1.3 60.7,2.7 -15.4,20.6 -22.5,33.2 -32.4,43.1 -307.6,306.3 -615.4,612.2 -923,918.5 -33.9,33.7 -68.2,67.2 -98.5,104 -29.8,36.2 -23.7,76.1 3.5,111.7 27.2,35.7 78.4,46.5 119.4,21.5 27.7,-17 51,-41.8 74.4,-65 304.9,-303.8 609.3,-608 914.3,-911.7 24.8,-24.7 52.6,-46.4 93.3,-81.9 -7.2,131 -41.9,234.8 -73.4,338.6 -124.4,409.6 -324.7,772.5 -663.1,1045.9 -276.9,223.7 -597,359.4 -940.6,441.7 -116.4,27.9 -235.1,46.5 -365.8,71.9 z m -200.5,28 c -0.8,11 -2,22 -2.4,33 -3.1,104.7 24.5,140.8 126.4,130 160.3,-16.9 321.8,-36.1 478.4,-72.8 402.5,-94.6 772.5,-259.2 1087.4,-535.2 254.4,-223 433.6,-497.5 563.9,-806.5 116.5,-276.3 190.3,-563.6 220.3,-862.1 2.9,-29.2 4.8,-58.8 3.6,-88.1 -3.1,-77 -32.8,-111.3 -108.9,-105.7 -109.8,8.1 -219.6,21.9 -327.9,41.8 -402.7,73.8 -778.5,214.3 -1112.8,456.2 -328.7,237.9 -552.8,555.5 -709,925 -119.8,283 -190,578.7 -219,884.4"
         style="fill:#323293;fill-opacity:1;fill-rule:nonzero;stroke:none"
         transform="matrix(0.13333333,0,0,-0.13333333,0,5333.3333)" />
      <path
         id="path19"
         d="m 4987.78,24662.3 c 5.48,7.4 10.96,14.8 16.44,22.2 -26.63,27.8 -52.68,56.3 -79.97,83.4 -299.85,298.3 -599.93,596.4 -899.78,894.8 -23.43,23.3 -49.04,45.6 -67.35,72.6 -26.46,39 -18.4,91 12.74,121.6 32.12,31.5 79.82,35.9 120.52,6.1 26.49,-19.4 48.99,-44.4 72.45,-67.7 307.88,-305.9 615.5,-612.1 923.65,-917.8 19.19,-19 42.24,-34.2 63.49,-51.2 6.83,3.7 13.65,7.3 20.47,10.9 -31.89,119.2 -58.65,240.1 -96.62,357.4 -123.34,380.9 -312.21,721.3 -625.66,981.6 -310.33,257.7 -672.67,401.8 -1062.67,484.5 -84.68,18 -170.44,30.9 -274.9,49.5 81.48,-557.9 249.24,-1056.4 642.27,-1450.1 341.04,-341.7 772.02,-507.2 1234.92,-597.8 z m -1901.51,2240.5 c 652.01,-82.1 1247.91,-283.9 1701.89,-790.2 178.9,-199.5 307.83,-430.5 406.39,-678.5 107.95,-271.6 173.16,-554.1 204.16,-844.4 12.86,-120.5 -24.32,-169.5 -134.19,-159 -584.02,56.2 -1123.65,229.4 -1573.18,623.6 -301.23,264.1 -491.48,601.9 -621.63,975.9 -77.62,223.1 -125.44,453.3 -153.31,687.8 -2.61,21.9 -4.57,44 -4.52,66 0.2,91.7 26.38,117.4 119.22,118.8 18.39,0.2 36.78,0 55.17,0"
         style="fill:#323293;fill-opacity:1;fill-rule:nonzero;stroke:none"
         transform="matrix(0.13333333,0,0,-0.13333333,0,5333.3333)" />
      <path
         id="path20"
         d="m 5435.4,28129.3 c 13,497.1 -386.81,1019.3 -1013.43,1017.9 -605.3,-1.4 -1011.4,-489.6 -1013.24,-1008.9 -1.98,-557.6 455.55,-1019.1 1015.51,-1019.5 556.11,-0.3 1010.95,454.2 1011.16,1010.5 z m -1007.22,1206.3 c 659.42,10.3 1211.77,-553.9 1199.73,-1220.9 -11.85,-655.9 -548.59,-1193.2 -1215.29,-1187.2 -677.06,6.1 -1202.2,569.1 -1195.24,1219.9 7.1,663.4 564.25,1205.4 1210.8,1188.2"
         style="fill:#323293;fill-opacity:1;fill-rule:nonzero;stroke:none"
         transform="matrix(0.13333333,0,0,-0.13333333,0,5333.3333)" />
      <path
         id="path21"
         d="m 6993.35,27509.5 c -81.89,-20.9 -149.68,-35.5 -215.83,-55.5 -279.43,-84.6 -544.96,-200.4 -793.63,-354.4 -369.96,-229.1 -646.56,-541.5 -836.85,-931.7 -17.73,-36.4 -35.18,-73 -54.88,-108.3 -26.12,-46.9 -69.14,-51.4 -114.98,-38.4 -44.25,12.7 -66.02,52.5 -55.6,105.9 5.52,28.2 19.5,55.1 31.74,81.6 296.54,643.7 800.52,1061.6 1448.18,1317.5 170.44,67.3 348.53,116.9 525.67,165.3 203.73,55.6 271.12,58.1 264.28,-203.2 -11.88,-453.3 -85.71,-892.6 -269.2,-1309.5 -253.66,-576.3 -689.54,-970.9 -1247.92,-1241.4 -36.26,-17.6 -74.43,-32.8 -113.31,-43.1 -64.06,-16.8 -111.32,5.4 -127.85,54.3 -17.36,51.5 4.34,95.5 62.21,124.3 13.07,6.5 27.8,9.6 41.26,15.4 425.48,184.8 776.75,462.4 1035.68,848.3 189.09,281.8 299.43,597.8 359.81,930.2 27.54,151.7 43.03,305.6 60.26,458.9 6.05,53.8 0.96,108.8 0.96,183.8"
         style="fill:#323293;fill-opacity:1;fill-rule:nonzero;stroke:none"
         transform="matrix(0.13333333,0,0,-0.13333333,0,5333.3333)" />
      <path
         id="path22"
         d="m 21958.2,27495.5 c -24.8,0 -43.3,3.7 -59.6,-0.6 -464.4,-122.5 -894,-314 -1260.7,-632.1 -226.3,-196.4 -389.7,-438.9 -523.1,-704.1 -16.5,-32.8 -30.6,-67.3 -50.3,-98.1 -27.8,-43.3 -81.4,-57.5 -125.7,-37.6 -42.9,19.2 -67.1,70.6 -41.6,119.9 73.9,143.6 145.9,289.4 233.5,424.7 264.3,407.9 640.5,683.5 1075.1,887.5 237.6,111.6 486.3,189 740.6,250.5 7.2,1.7 14.3,3.4 21.5,4.8 151.2,27.2 187.4,-0.2 189.2,-152 6.5,-580.6 -104,-1132.8 -398.7,-1640.6 -204.7,-352.6 -497.3,-616.7 -838,-830.9 -99.3,-62.4 -206.6,-112.3 -311.5,-165.5 -29.1,-14.8 -61.9,-24.7 -94.1,-30.1 -59.8,-9.9 -97,13.1 -112.8,63.3 -13.3,42.2 4.7,82.3 50.3,109.8 12.5,7.5 26.2,13.1 39.7,18.9 677.1,294 1137,782.4 1343.3,1498.6 77.7,269.9 124.3,544.4 128.2,825.6 0.4,28.2 -3.3,56.5 -5.3,88"
         style="fill:#323293;fill-opacity:1;fill-rule:nonzero;stroke:none"
         transform="matrix(0.13333333,0,0,-0.13333333,0,5333.3333)" />
      <path
         id="path23"
         d="m 22122.6,19880.1 c -68.1,-17.7 -121.1,-30.1 -173.3,-45.3 -377.8,-109.7 -730.2,-271.3 -1043.8,-512.3 -280.3,-215.4 -483.6,-491.5 -637.9,-806.5 -16.2,-32.9 -31,-67.6 -52.9,-96.4 -26.1,-34.2 -61.7,-50.8 -106.9,-30.2 -42.9,19.6 -62.9,53.5 -55.2,97.2 6.3,35.5 21.8,70 37.2,103 251.4,538.1 653.5,927.3 1181.9,1190.4 277.9,138.4 568.6,240.7 873.7,300.4 14.5,2.8 28.7,7.5 43.2,9 79.6,8.4 121.1,-19.8 123,-101.6 3.2,-143.3 5.2,-287.6 -7.2,-430.1 -29.2,-335.1 -104.6,-659.4 -235.1,-971.3 -163.3,-390.4 -415.9,-709 -750.1,-964.4 -178.7,-136.5 -365.5,-260.8 -577.8,-341.1 -27.3,-10.3 -55.6,-23.1 -84,-24.7 -44,-2.5 -80,19.1 -92.2,63.6 -11.3,41.3 -5,81.3 35.1,107 15.3,9.8 32.9,16.1 49.8,23.4 760.1,331.1 1230.4,900.8 1396.8,1713.6 41.2,201 55.6,407.5 80.6,611.6 3.5,28.1 -2.4,57.3 -4.9,104.7"
         style="fill:#323293;fill-opacity:1;fill-rule:nonzero;stroke:none"
         transform="matrix(0.13333333,0,0,-0.13333333,0,5333.3333)" />
      <path
         id="path24"
         d="m 19502.8,28698.1 c -15,-16.2 -26.7,-24.9 -33.1,-36.5 -142.7,-257.2 -285,-514.7 -427.1,-772.3 -48,-87 -61.1,-181.5 -48.8,-278.1 26,-204.2 136.8,-349.9 328.5,-420.1 190.2,-69.6 371.6,-39.4 522.6,102.8 182.6,172 218.9,404.4 99.4,623.9 -133.7,245.4 -270.9,488.9 -406.9,733 -8.4,14.9 -20.3,27.9 -34.6,47.3 z M 19500,26968 c -479.6,-11.9 -880,509 -623,1017.4 162.3,321.4 346.7,631.7 523.3,945.7 62.7,111.3 140.3,110.4 202.4,-0.8 173.9,-311.3 350.1,-621.5 517.8,-936.1 249.7,-468.4 -89.9,-1026.4 -620.5,-1026.2"
         style="fill:#323293;fill-opacity:1;fill-rule:nonzero;stroke:none"
         transform="matrix(0.13333333,0,0,-0.13333333,0,5333.3333)" />
      <path
         id="path25"
         d="m 19622.3,20156.7 c 285.1,-1.6 520.7,230 523.6,514.7 2.9,282.2 -231.3,522.9 -513,527.2 -286.6,4.5 -528.8,-234.8 -528.5,-522.2 0.2,-285.9 231.7,-518.1 517.9,-519.7 z m 4.2,-192.2 c -388.7,-1.5 -712.9,315.9 -714.7,704.7 -1.9,390.8 300.1,719.7 711.1,719.4 446.4,-0.3 711.3,-357.4 714.7,-704.5 4,-395 -316.6,-718.1 -711.1,-719.6"
         style="fill:#323293;fill-opacity:1;fill-rule:nonzero;stroke:none"
         transform="matrix(0.13333333,0,0,-0.13333333,0,5333.3333)" />
      <path
         id="path26"
         d="m 35071,13919.1 c -314.4,-352.4 -326.1,-817.4 7.6,-1146.7 310.4,338.4 309,809.6 -7.6,1146.7 z m -432.5,-571 c 0.4,234.8 92.2,436.7 223.3,623.7 37.9,54.1 79.9,105.9 125.2,154 55.9,59.4 104.1,62.5 161.1,5.2 54.1,-54.5 103.6,-115 147,-178.5 126.6,-185.4 211.6,-385.2 209.6,-616.1 -2.1,-242.8 -97,-449.7 -235.7,-640.9 -36.6,-50.4 -75.9,-99.9 -120.1,-143.7 -51.6,-51.1 -106.1,-52.1 -154.6,0.3 -208,224.9 -351.7,479.7 -355.8,796"
         style="fill:#323293;fill-opacity:1;fill-rule:nonzero;stroke:none"
         transform="matrix(0.13333333,0,0,-0.13333333,0,5333.3333)" />
      <path
         id="path27"
         d="m 20595,29256.7 c -92.2,-167.9 -178.7,-312 -251.7,-462.8 -55.5,-114.4 -10.6,-250.1 89.4,-323.1 97,-70.8 235.1,-68.9 327.7,4.5 101.7,80.4 141.5,209 84.7,324.1 -72.8,147.4 -157.3,289 -250.1,457.3 z m -1.3,-1028.9 c -347.2,1.1 -572,361.6 -414.1,672.7 99.7,196.4 210.8,387.1 320.1,578.5 56.6,99 134,99.1 191.8,-1.7 111.4,-194.4 225.5,-387.9 323.6,-589 150.6,-308.9 -78.9,-661.7 -421.4,-660.5"
         style="fill:#323293;fill-opacity:1;fill-rule:nonzero;stroke:none"
         transform="matrix(0.13333333,0,0,-0.13333333,0,5333.3333)" />
      <path
         id="path28"
         d="m 27584.8,29421.4 c 40.5,0.1 80.9,0.7 121.4,0 285.8,-5.2 471.5,-233.4 409,-512.4 -34.4,-153.8 -82.5,-304.7 -127.7,-455.9 -22.2,-74.1 -64.3,-101.1 -118.1,-86.5 -58.7,16 -82.6,65.8 -62.5,141.3 34.9,131.2 74.8,261.1 107.9,392.7 12.2,48.5 21.1,101.9 14.1,150.6 -15.7,109.2 -93.4,172.7 -205.7,176.7 -84.5,3 -169.2,2.2 -253.7,0.8 -175.3,-3 -267.9,-123.9 -224.1,-295.7 33.6,-131.6 72.6,-261.7 108.1,-392.8 7.6,-28 14.3,-57.2 14.9,-86 0.9,-46.4 -27.9,-74.7 -70,-87.6 -40.8,-12.6 -73.6,6.2 -94.6,39 -15.4,24.1 -24.3,53.1 -32.4,81 -38.5,134.1 -77.1,268.2 -113.1,403 -74.6,279.1 107.3,523.8 394.2,531.6 44.1,1.2 88.2,0.2 132.3,0.2"
         style="fill:#323293;fill-opacity:1;fill-rule:nonzero;stroke:none"
         transform="matrix(0.13333333,0,0,-0.13333333,0,5333.3333)" />
      <path
         id="path29"
         d="m 29179.1,27823.4 c 0,-47.8 2.2,-95.7 -0.4,-143.4 -14.5,-261.3 -253.3,-443.5 -507.2,-382.6 -153.5,36.8 -304.9,82.7 -456.7,126.4 -23.9,6.8 -48.6,19.3 -66.8,36 -34.2,31.3 -34.8,73.3 -13.5,111 21.8,38.5 59.9,53.8 103.9,43.4 50,-11.7 99.5,-26.1 149,-39.9 102.6,-28.6 204.6,-59.3 307.6,-86.1 161.2,-41.7 286.1,52.7 291.1,220.1 2.5,84.6 3,169.3 -0.2,253.8 -5.7,151.8 -133.4,248.7 -281.1,211.5 -131.6,-33.3 -261.7,-72.7 -392.6,-109.2 -28.3,-7.9 -56.5,-18.6 -85.4,-21.6 -50.2,-5.2 -92,22.8 -101.3,65.8 -10.5,47.9 2.4,87.7 49.1,110.8 16.4,8.1 33.6,15.5 51.2,20.3 148.6,41.1 296.5,85.6 446.5,121.3 250.4,59.8 486.6,-115.6 505.7,-372.2 4.1,-54.8 0.6,-110.2 0.6,-165.4 0.2,0 0.3,0 0.5,0"
         style="fill:#323293;fill-opacity:1;fill-rule:nonzero;stroke:none"
         transform="matrix(0.13333333,0,0,-0.13333333,0,5333.3333)" />
      <path
         id="path30"
         d="m 27573.6,26237.2 c -40.5,0 -81,-0.7 -121.5,0.1 -261.2,5.3 -454.1,225.3 -405.4,479.6 32.4,169.2 87.4,334.3 136.6,499.9 18.5,62.1 68.5,87.9 117.7,73.6 52.3,-15.2 75.9,-57.5 66.5,-122.2 -2.7,-18.1 -9.7,-35.4 -14.6,-53.1 -33.3,-120.5 -67,-240.9 -99.9,-361.6 -7.7,-28.2 -16.1,-57 -18.2,-85.9 -9.5,-128.6 77.6,-231 206.4,-237.4 95.5,-4.7 191.6,-4.9 287.1,0.3 138.9,7.6 230.5,121.6 201.5,258.1 -28.3,132.8 -69.8,262.8 -105.5,394 -7.7,28.4 -17.1,56.5 -22.6,85.3 -11.9,61.7 12.4,106 64.8,122.1 51.7,15.9 91.9,-8.2 117.6,-71.3 4.2,-10.2 6.2,-21.2 9.2,-31.8 39.5,-137.9 82.2,-275 117.7,-414 62.6,-244.2 -63.8,-471.4 -295.5,-523.7 -77.8,-17.6 -160.9,-11.4 -241.7,-16.1 0,1.4 -0.1,2.7 -0.2,4.1"
         style="fill:#323293;fill-opacity:1;fill-rule:nonzero;stroke:none"
         transform="matrix(0.13333333,0,0,-0.13333333,0,5333.3333)" />
      <path
         id="path31"
         d="m 25981.4,27835 c 5.7,67.1 5.8,133.8 17.8,198.4 45.6,243.7 269.1,386.1 510.3,325.1 146,-36.9 290.6,-79.5 435.8,-119.7 10.6,-2.9 21.1,-6.6 31.3,-10.8 53.2,-22.2 81.7,-65.2 72.4,-108.4 -11.5,-53.2 -53.3,-84.3 -118.3,-70.7 -104.1,21.8 -206.3,52.8 -309.1,80.5 -53.2,14.3 -105.6,31.9 -159.3,44.2 -137.6,31.6 -265,-51.4 -279,-192 -10.1,-101.9 -10.4,-206.7 1.4,-308.4 16.5,-143.4 139.3,-221.4 280.8,-185.9 139,34.8 276.3,76.1 414.7,113.6 95.4,25.8 145,9 165.4,-53.7 20,-61.1 -14.6,-103.2 -112.9,-131 -141.4,-40.2 -282.8,-80.5 -425.3,-116.6 -239.6,-60.6 -464.2,83.8 -508.5,327.8 -12.4,68.2 -12,138.7 -17.5,207.6"
         style="fill:#323293;fill-opacity:1;fill-rule:nonzero;stroke:none"
         transform="matrix(0.13333333,0,0,-0.13333333,0,5333.3333)" />
      <path
         id="path32"
         d="m 27579.3,27532.7 c 173.1,-2.1 303.6,124.4 304.3,294.9 0.6,162.8 -127.5,296.5 -289.7,302.1 -165.5,5.8 -306.2,-126.4 -311.7,-292.9 -5.5,-165.1 128.4,-302.1 297.1,-304.1 z m -1.4,-192.9 c -271.3,3.9 -494.2,226.5 -487.9,493.3 7.1,295.1 255.6,495.8 506.8,486.1 271.6,-10.5 482.9,-223.6 479.2,-499.3 -3.6,-272 -223.4,-483.9 -498.1,-480.1"
         style="fill:#323293;fill-opacity:1;fill-rule:nonzero;stroke:none"
         transform="matrix(0.13333333,0,0,-0.13333333,0,5333.3333)" />
      <path
         id="path33"
         d="m 5354.96,25468.1 c -33.32,22 -65.03,34.8 -84.34,57.9 -25.5,30.4 -23.03,68.8 2.87,101.5 20.5,25.9 42.37,50.7 64.42,75.4 262.2,292.8 524.54,585.5 786.86,878.3 4.9,5.5 9.8,11 15.02,16.1 56.94,56.4 109.61,63.4 153.64,20.6 41.79,-40.7 42.22,-88.3 -8.64,-146.7 -113.41,-130.1 -229.9,-257.6 -345.32,-386 -162.1,-180.4 -323.72,-361.2 -487.25,-540.2 -25.81,-28.3 -60.6,-48.3 -97.26,-76.9"
         style="fill:#323293;fill-opacity:1;fill-rule:nonzero;stroke:none"
         transform="matrix(0.13333333,0,0,-0.13333333,0,5333.3333)" />
      <path
         id="path34"
         d="m 21179.1,26644.9 c 85.7,5.6 136.8,-74.1 102.2,-138.1 -15.4,-28.5 -40.1,-52.3 -62.1,-76.9 -264.3,-295.3 -529,-590.3 -793.5,-885.4 -2.5,-2.8 -4.9,-5.5 -7.5,-8.1 -58.4,-60.7 -118.7,-71.7 -162.2,-29.7 -40,38.6 -35.4,96 17.5,155.9 119,134.8 239.7,268.1 359.9,401.9 157,174.6 313.6,349.5 472,522.9 23.6,25.9 55.9,43.9 73.7,57.5"
         style="fill:#323293;fill-opacity:1;fill-rule:nonzero;stroke:none"
         transform="matrix(0.13333333,0,0,-0.13333333,0,5333.3333)" />
      <path
         id="path35"
         d="m 21449.7,18900.7 c -12.6,-19.1 -30.2,-55 -55.9,-83.8 -202.6,-227.6 -406.6,-453.8 -610.3,-680.3 -73.6,-81.9 -145.5,-165.4 -223,-243.5 -23,-23.2 -63.1,-43.9 -94,-42.1 -71.1,4 -102.9,89.4 -58.4,152.1 31.7,44.7 71.2,83.8 108,124.8 242.7,270.3 485.4,540.6 728.6,810.5 19.5,21.7 39.1,45.4 63.5,60.3 64.1,39.3 140.8,-4.8 141.5,-98"
         style="fill:#323293;fill-opacity:1;fill-rule:nonzero;stroke:none"
         transform="matrix(0.13333333,0,0,-0.13333333,0,5333.3333)" />
      <path
         id="path36"
         d="m 20387.5,20014.6 c 35,-20.4 66.6,-32.3 89.5,-53.6 61.8,-57.7 121.9,-117.7 179.1,-180 49.1,-53.4 49.2,-106.1 7.3,-146 -40.1,-38.2 -94.6,-34.9 -146.3,14.5 -63.8,61.1 -125,124.9 -186.4,188.4 -31.1,32.2 -42.1,73.2 -18.8,111.2 15.6,25.4 46.6,41.3 75.6,65.5"
         style="fill:#323293;fill-opacity:1;fill-rule:nonzero;stroke:none"
         transform="matrix(0.13333333,0,0,-0.13333333,0,5333.3333)" />
      <path
         id="path37"
         d="m 13857.6,12712.8 c -51.5,0 -103.2,-3.1 -154.4,0.8 -60.2,4.7 -93,38 -94.6,87.2 -1.6,48.2 30.3,94.3 86.4,97.4 106,5.8 213,4.7 319,-2.4 54.7,-3.6 89.6,-53.3 86.1,-97.8 -3.7,-45.5 -41.8,-78.5 -99.1,-85.5 -7.3,-0.9 -14.7,-1.2 -22,-1.2 -40.5,-0.2 -81,-0.1 -121.4,-0.1 0,0.5 0,1.1 0,1.6"
         style="fill:#323293;fill-opacity:1;fill-rule:nonzero;stroke:none"
         transform="matrix(0.13333333,0,0,-0.13333333,0,5333.3333)" />
      <path
         id="path38"
         d="m 20705.2,21657 c -18.5,-33.1 -28.1,-61.7 -46.9,-81.8 -60.1,-64.6 -122.8,-126.8 -186.1,-188.3 -34.6,-33.6 -77.2,-43.4 -121.9,-21.5 -52.6,25.7 -68.3,91.2 -25.7,140.2 65.1,74.7 136,144.6 207.9,212.8 30.2,28.6 72.4,43.8 110.7,13.6 23.7,-18.7 39.6,-47.2 62,-75"
         style="fill:#323293;fill-opacity:1;fill-rule:nonzero;stroke:none"
         transform="matrix(0.13333333,0,0,-0.13333333,0,5333.3333)" />
      <path
         id="path39"
         d="m 18959.8,19913.4 c -18.3,-33.7 -27.6,-63.1 -46.6,-83.4 -60.3,-64.5 -122.6,-127.3 -187.3,-187.3 -46.4,-42.9 -100.9,-43.7 -138.7,-9.2 -39.5,35.9 -44.3,89.8 -1.2,137.6 64,71 133.4,137.2 202.6,203.2 31.7,30.2 72.7,42.2 110.4,13.2 23.9,-18.4 39.6,-47.5 60.8,-74.1"
         style="fill:#323293;fill-opacity:1;fill-rule:nonzero;stroke:none"
         transform="matrix(0.13333333,0,0,-0.13333333,0,5333.3333)" />
      <path
         id="path40"
         d="m 20867.2,20582.6 c -51.4,0 -103.1,-2.9 -154.3,0.8 -56.2,4.1 -91.7,41 -94.6,89.6 -2.7,45.1 34.5,95.2 86.6,97.7 102.6,5 205.9,4.7 308.6,-0.3 53,-2.6 83.6,-48.3 80.7,-100.2 -2.6,-47 -31.8,-80.8 -83.7,-85.7 -47.3,-4.5 -95.5,-1 -143.3,-1 0,-0.3 0,-0.6 0,-0.9"
         style="fill:#323293;fill-opacity:1;fill-rule:nonzero;stroke:none"
         transform="matrix(0.13333333,0,0,-0.13333333,0,5333.3333)" />
      <path
         id="path41"
         d="m 18648.4,21758.2 c 33.4,-20.5 61.2,-31.9 81.6,-51.2 61.7,-57.8 122,-117.3 179.9,-178.9 48.7,-51.7 51.5,-107.8 12.8,-146.7 -38.3,-38.4 -96.8,-37 -146.9,10.3 -66.7,63.1 -130.9,129 -193.8,196 -26.8,28.4 -38.9,67.7 -14.7,101.3 19.7,27.1 51.9,45 81.1,69.2"
         style="fill:#323293;fill-opacity:1;fill-rule:nonzero;stroke:none"
         transform="matrix(0.13333333,0,0,-0.13333333,0,5333.3333)" />
      <path
         id="path42"
         d="m 18388.7,20582.8 c -47.8,0 -95.8,-3.3 -143.1,0.9 -58.2,5.2 -89.6,40.3 -90.2,91.4 -0.6,51.1 29.7,92.8 86.5,95.7 102.5,5.4 205.6,4.8 308.1,-0.6 48.6,-2.5 88,-58.6 80.4,-102.4 -8.3,-47.7 -36.2,-81.2 -87.6,-83.8 -51.3,-2.6 -102.7,-0.6 -154.1,-0.6 0,-0.2 0,-0.4 0,-0.6"
         style="fill:#323293;fill-opacity:1;fill-rule:nonzero;stroke:none"
         transform="matrix(0.13333333,0,0,-0.13333333,0,5333.3333)" />
      <path
         id="path43"
         d="m 19720.6,21902.5 c 0,-40.4 1.9,-80.9 -0.4,-121.2 -3.8,-65.7 -46.2,-112.2 -98,-111.1 -49.5,1.1 -90.2,42.3 -92.3,104.2 -3.2,91.7 -3.8,183.7 0.4,275.4 3,63.8 41.7,97.8 96.9,97.5 53.3,-0.3 87.9,-35.7 92.5,-101.6 3.3,-47.5 0.7,-95.5 0.7,-143.2 0,0 0.1,0 0.2,0"
         style="fill:#323293;fill-opacity:1;fill-rule:nonzero;stroke:none"
         transform="matrix(0.13333333,0,0,-0.13333333,0,5333.3333)" />
      <path
         id="path44"
         d="m 19528.9,19445.5 c 0,47.6 -3.1,95.4 0.7,142.7 4.6,56.4 39.9,88.4 91.3,90.2 51,1.9 94.4,-29.2 97,-83.9 4.7,-102.2 4.5,-205 -0.7,-307.1 -2.8,-52.6 -48.9,-82.3 -100.7,-78.7 -47.5,3.4 -81.3,32.2 -85.7,83.2 -4.4,50.9 -1,102.4 -1,153.6 -0.3,0 -0.6,0 -0.9,0"
         style="fill:#323293;fill-opacity:1;fill-rule:nonzero;stroke:none"
         transform="matrix(0.13333333,0,0,-0.13333333,0,5333.3333)" />
      <path
         id="path45"
         d="m 13851.9,11874.5 c -51.2,0 -102.6,-3.2 -153.5,0.8 -57.6,4.5 -90.1,40.6 -89.8,90.5 0.4,45.5 28.6,84.3 80.8,87.3 105.5,6.1 211.8,7.8 317.3,2.9 60.6,-2.9 88.1,-40.1 87.6,-91.8 -0.6,-57.2 -31.1,-86.3 -99.8,-90 -47.4,-2.5 -95.1,-0.5 -142.6,-0.5 0,0.3 0,0.5 0,0.8"
         style="fill:#323293;fill-opacity:1;fill-rule:nonzero;stroke:none"
         transform="matrix(0.13333333,0,0,-0.13333333,0,5333.3333)" />
      <path
         id="path46"
         d="m 14286.8,18090.3 c 1.4,-80.7 -71.9,-155.7 -151.9,-155.5 -79.8,0.3 -151.4,75.6 -150.5,158 1,80.2 64.3,142.7 147.5,145.3 88.2,2.9 153.3,-59.3 154.9,-147.8"
         style="fill:#323293;fill-opacity:1;fill-rule:nonzero;stroke:none"
         transform="matrix(0.13333333,0,0,-0.13333333,0,5333.3333)" />
      <path
         id="path47"
         d="m 14322.8,17008.1 c -86.1,2.8 -148.8,71.1 -146.2,159.2 2.7,90.2 66.1,147.6 157.8,143.1 80.4,-4 146,-71.1 145.5,-149.1 -0.5,-78.2 -80,-155.8 -157.1,-153.2"
         style="fill:#323293;fill-opacity:1;fill-rule:nonzero;stroke:none"
         transform="matrix(0.13333333,0,0,-0.13333333,0,5333.3333)" />
      <path
         id="path48"
         d="m 13698.2,17357.7 c -83,0.9 -153.2,74.3 -150.1,156.8 3.3,83.5 75.7,149.4 160.7,146.1 82.2,-3.2 141.1,-66.3 140.6,-150.8 -0.5,-89.6 -63.6,-153.1 -151.2,-152.1"
         style="fill:#323293;fill-opacity:1;fill-rule:nonzero;stroke:none"
         transform="matrix(0.13333333,0,0,-0.13333333,0,5333.3333)" />
      <path
         id="path49"
         d="m 29354.5,17135.8 c -15.2,6.7 -30.4,13.3 -45.2,20.8 -0.4,0.1 5.3,14.3 6,14.1 16.1,-4.3 32,-9.7 47.8,-15 -2.9,-6.6 -5.8,-13.3 -8.6,-19.9"
         style="fill:#323293;fill-opacity:1;fill-rule:nonzero;stroke:none"
         transform="matrix(0.13333333,0,0,-0.13333333,0,5333.3333)" />
      <path
         id="path50"
         d="m 12619.9,10899 c -261.3,0 -522.6,-0.1 -783.9,0.2 -29.3,0.1 -59.8,-1.8 -87.7,5.3 -43.6,11 -67.2,41.5 -66,89.1 1.1,47.9 27,75.5 70.9,85.2 24.7,5.4 51.2,3.9 76.9,3.9 533.7,0.2 1067.4,0.2 1601,-0.1 25.6,0 52.3,1.1 76.6,-5.4 43.4,-11.6 69.5,-42.2 67.7,-88.5 -1.7,-45.7 -27.9,-76.6 -72.6,-84.9 -32.2,-5.9 -65.9,-4.8 -98.9,-4.9 -261.3,-0.3 -522.6,-0.2 -784,-0.2 0,0.1 0,0.2 0,0.3"
         style="fill:#323293;fill-opacity:1;fill-rule:nonzero;stroke:none"
         transform="matrix(0.13333333,0,0,-0.13333333,0,5333.3333)" />
      <path
         id="path51"
         d="m 4983.49,10841.5 c -137.25,1.9 -246.61,-104.7 -246.4,-240.2 0.2,-132.8 103.62,-236.9 236.4,-237.9 139.52,-1 247.17,103.1 246.83,238.8 -0.32,130.3 -106.46,237.5 -236.83,239.3 z m -102.39,189.7 c 0,37.1 0,73.4 0,109.6 0.03,265 -0.01,529.9 0.2,794.8 0.03,29.4 -1.99,59.5 3.18,88.1 9.06,50.2 56.91,88.4 100.73,85.5 41.5,-2.7 78.32,-38.4 85.1,-87.8 3.97,-28.9 2.09,-58.7 2.11,-88.1 0.08,-265 2.45,-529.9 -1.58,-794.8 -1.14,-75.3 17.57,-115.8 91.94,-149.8 174.31,-79.9 256.96,-225.8 244.75,-418.3 -11.64,-183.6 -109.23,-309.9 -279.26,-375 -211.89,-81.1 -455.05,23.3 -546.09,228.6 -92.39,208.4 -9.2,450.9 192.41,558.8 28.9,15.5 59.76,27.3 106.51,48.4"
         style="fill:#323293;fill-opacity:1;fill-rule:nonzero;stroke:none"
         transform="matrix(0.13333333,0,0,-0.13333333,0,5333.3333)" />
      <path
         id="path52"
         d="m 26803.9,11975.6 c -23.6,-121.8 14.1,-292.9 92.8,-429.5 118.7,-206.1 310.5,-317 522,-401.9 42.3,-17 87,-28.2 133,-42.8 26.6,419.3 -255.2,765 -747.8,874.2 z m 1516.6,272 c -588.2,-175.1 -723.8,-688 -540,-1097.1 521.1,260.7 685.2,718.6 540,1097.1 z m -773.4,-472.3 c 7.7,11.2 16.3,19.2 19.5,29.1 94.4,292 311.7,464.6 575.8,590.5 59.6,28.4 122.3,51 185,71.9 90.4,30.3 131,14 161.7,-76.2 126.8,-372.7 99.7,-726.2 -153.6,-1041.6 -162.2,-202 -373.4,-342.5 -609.7,-444.5 -38,-16.4 -87.8,-23.9 -127.5,-14.9 -224.4,51.2 -434.7,137.1 -619.2,278.1 -240.7,183.9 -356.2,433.6 -378.8,730.5 -4.2,54.9 -3.8,110.5 -1.7,165.6 4.8,125.4 48.3,161.6 166.8,133.4 168.9,-40.4 333.2,-96.8 478.9,-192.5 103.7,-68.2 198.6,-149.7 302.8,-229.4"
         style="fill:#323293;fill-opacity:1;fill-rule:nonzero;stroke:none"
         transform="matrix(0.13333333,0,0,-0.13333333,0,5333.3333)" />
      <path
         id="path53"
         d="m 34841.2,25641.2 c 300.8,234.4 511.4,528.3 565.9,911.7 40.5,284.5 12.7,565.9 -97.5,849.4 -315.6,-226.1 -566.4,-483.4 -681.9,-845.8 -88.3,-277.3 -79.1,-558.2 2.4,-838.2 24.4,35.4 40.1,71.8 52.8,109.3 67.2,198.2 133.4,396.7 200.6,595 9.3,27.6 18.5,56.4 34.2,80.6 24.5,37.9 62.5,50.9 105.9,36 43.7,-14.9 65.2,-48.9 60.5,-93.8 -3.4,-32.4 -13.8,-64.5 -24.1,-95.7 -69.1,-209.2 -139.6,-417.8 -207.8,-627.2 -8.5,-26.1 -5.9,-55.8 -8.5,-83.8 l -8.5,-0.6 z m 772.1,1129.9 c 9,-407.8 -142.7,-760.5 -416.9,-1065.8 -126.1,-140.5 -268.2,-262.6 -426,-365.7 -45.9,-29.9 -75.1,-65.5 -90.6,-118.3 -25,-84.6 -54.5,-168 -85.6,-250.6 -9.8,-26.2 -26,-61.2 -47.7,-69.2 -30.7,-11.1 -73.6,-10.6 -103.1,2.8 -40.1,18.2 -51,61.6 -37.1,104.9 28.1,87.6 55.1,175.6 88.1,261.3 22.6,58.6 19.8,110.9 0,170.5 -75.9,228 -118.3,461.4 -118.9,703.6 -1,348.3 103.4,658.3 312.6,934.4 161.9,213.7 358.8,389.1 586.8,529.6 100.9,62.2 151.4,47.3 194.2,-64.9 93.7,-246 148.1,-500.3 144.2,-772.6"
         style="fill:#323293;fill-opacity:1;fill-rule:nonzero;stroke:none"
         transform="matrix(0.13333333,0,0,-0.13333333,0,5333.3333)" />
      <path
         id="path54"
         d="m 4511.72,28185.5 c 105.17,-68.2 206.79,-133.9 308.07,-200.1 21.4,-14 44.85,-26.9 61.68,-45.4 30.18,-33.2 33.01,-73.2 10.56,-112.3 -23.57,-41 -62.29,-49.7 -104.83,-39 -20.82,5.3 -40.84,16.6 -59.2,28.3 -111.39,71.1 -221.23,144.8 -333.63,214.3 -52.08,32.2 -76.19,72 -75.53,134.7 2.22,213 0,426.1 0.09,639.1 0.01,21.9 1.78,44.3 6.84,65.5 9.73,40.8 39.07,60.5 79.5,64.2 40.28,3.7 76.21,-8.8 89.62,-48.2 11.49,-33.7 15.86,-71.2 16.14,-107.1 1.47,-194.5 0.69,-389 0.69,-594"
         style="fill:#323293;fill-opacity:1;fill-rule:nonzero;stroke:none"
         transform="matrix(0.13333333,0,0,-0.13333333,0,5333.3333)" />
      <path
         id="path55"
         d="m 5127.88,28224.8 c 21.81,0 43.9,2.3 65.35,-0.4 50.73,-6.4 93.82,-49.2 89.89,-92 -4.45,-48.3 -32.4,-85.3 -80.86,-89.7 -57.23,-5.2 -116.1,-3.1 -173.16,4.3 -45,5.8 -66.34,40.4 -65.3,86.9 1.1,49.1 26.24,81.6 77.07,89.6 28.33,4.5 57.96,0.8 87.01,0.8 0,0.2 0,0.4 0,0.5"
         style="fill:#323293;fill-opacity:1;fill-rule:nonzero;stroke:none"
         transform="matrix(0.13333333,0,0,-0.13333333,0,5333.3333)" />
      <path
         id="path56"
         d="m 3705.04,28227.8 c 25.64,-1.2 51.63,-0.1 76.85,-4 49.85,-7.7 79.4,-41.6 80.7,-88.4 1.29,-46.6 -26.04,-87.3 -75.69,-92.8 -54.03,-6.1 -110.13,-5.5 -163.98,1.9 -54.7,7.6 -76.15,40.5 -74.75,91.7 1.35,49.3 28.1,80.7 79.93,88.2 25.14,3.6 51.24,0.6 76.9,0.6 0.01,0.9 0.03,1.8 0.04,2.8"
         style="fill:#323293;fill-opacity:1;fill-rule:nonzero;stroke:none"
         transform="matrix(0.13333333,0,0,-0.13333333,0,5333.3333)" />
      <path
         id="path57"
         d="m 4318.09,27436.5 c 1.44,20 0.66,46.2 5.66,71.2 10.4,52 43.42,78.4 91.86,76.5 46.14,-1.9 80.7,-24.8 85.04,-70.7 5.5,-57.9 6.3,-117.5 -0.54,-175.2 -5.51,-46.5 -54.26,-79.8 -95.16,-73.1 -43.21,7.1 -75.43,30.7 -81.45,77.6 -3.74,29 -3.54,58.6 -5.41,93.7"
         style="fill:#323293;fill-opacity:1;fill-rule:nonzero;stroke:none"
         transform="matrix(0.13333333,0,0,-0.13333333,0,5333.3333)" />
      <path
         id="path58"
         d="m 11661.1,33210.5 c 2.6,-40.3 2,-76.7 7.6,-112.2 43.7,-274.5 216.7,-435.6 467.1,-527 17.8,-6.4 43.4,-10 58.6,-2 73.8,38.9 145.3,82.2 218.6,124.5 -225,248.6 -238.4,219.2 -387.8,675.8 -120.6,-52.7 -240.8,-105.2 -364.1,-159.1 z m 1817.8,1339.6 c 4.9,-2.3 9.7,-4.5 14.6,-6.7 8.8,9.8 17.5,19.7 26.4,29.4 163.1,179.9 343.1,339.4 558.4,455 42,22.6 85.3,43.5 129.7,60.5 38.6,14.8 73.9,0.2 95,-32 28.7,-43.9 10.9,-93.4 -48.7,-119.7 -240.4,-106.1 -434.2,-272.7 -609.2,-464.2 -13.2,-14.5 -24.1,-31 -43.9,-56.7 73.2,4.1 133.9,5.8 194.3,11.1 127.2,11.1 251.8,33.6 372.6,78 188.3,69.1 304.2,201.5 354.6,393.3 27.2,103.8 39.4,210 42,317.2 0.4,15 -3.3,30 -5.5,47.5 -108.6,0 -213.3,3.5 -317.6,-1.1 -83.8,-3.6 -168,-12.7 -250.6,-27.3 -116.2,-20.5 -223.7,-64.7 -307.6,-151.1 -144.6,-148.9 -188.7,-336.1 -204.5,-533.2 z m -256.6,-131.8 c 0.7,7.9 2.9,13.1 1.2,16.6 -6.6,14.4 -13.9,28.6 -21.8,42.3 -213.4,371.1 -498.3,666.1 -896.2,840.6 -10.4,4.6 -21,9.4 -30,16 -32.9,24.2 -42.5,61.4 -26.1,96.6 17.8,38.2 55.1,55.3 96.1,43 13,-3.9 25.8,-9.3 37.7,-16 107,-60.1 218.9,-113.2 319.6,-182.6 222,-153 401.8,-348.9 549.3,-574.5 13.4,-20.4 20.7,-48.5 55.2,-60.4 -5,76.5 -5.5,147.3 -15.2,216.8 -15.1,108 -29.6,216.8 -56.8,322.1 -47.9,184.7 -162.7,319.4 -338.2,396.5 -76.7,33.7 -156.5,62.6 -237.4,83.9 -201.7,52.9 -409.1,61.6 -616.4,68 -33.5,1.1 -67,0.2 -106.1,0.2 0,-24.9 -0.7,-42.6 0.1,-60.2 3.9,-86.4 7.6,-172.9 12.5,-259.3 7.4,-132.4 28.6,-262.4 68.8,-389 61.3,-192.9 173.9,-345.3 357.3,-437.4 68.9,-34.5 141.2,-63.8 214.7,-86.9 195.2,-61.2 398.4,-68.9 600.7,-80.5 10.5,-0.6 21.2,2.8 31,4.2 z m 194.9,-1262.1 c -102.6,0 -205.2,0 -307.8,0.1 -18.3,0 -36.7,-1.2 -54.7,0.9 -44.4,5.4 -77,42.1 -75.2,82.7 1.7,37.6 34.3,71.8 74.7,76.4 18,2 36.4,0.8 54.6,0.8 177.9,0 355.7,-0.5 533.6,0.7 21.4,0.1 47.8,3.1 63.4,15.5 54.8,43.3 51.4,128.5 -3.4,172.6 -31.7,25.6 -68.3,33.7 -108.5,33.5 -139.1,-0.8 -278.2,0.7 -417.3,-0.6 -38.2,-0.4 -70.1,9.6 -102.2,30.2 -292,188.3 -606.7,131.5 -862.6,-87.3 -20.7,-17.8 -29.9,-36.7 -24.9,-65.5 41.7,-242.9 150.8,-446.5 343.7,-603.5 40.7,-33.1 84.9,-49.3 136,-56.6 196,-27.9 391.7,-58.6 587.5,-87.6 215.7,-32 412,13.2 584.6,149.6 43,33.9 84.4,69.6 126.7,104.3 264.2,217.1 528.6,433.8 792,651.8 27.5,22.7 54.1,50.3 70.9,81.1 29.4,54 -1.8,100.8 -63.9,102.2 -17.9,0.4 -37.6,-0.8 -53.6,-7.9 -53.7,-23.8 -110.1,-44.8 -158.5,-77.3 -234.9,-157.2 -467.7,-317.3 -700.4,-477.7 -39.2,-26.9 -78.5,-40.8 -126.9,-39.3 -102.5,3.1 -205.2,0.9 -307.8,0.9 z m -113.3,547.8 c 0,182.6 0,361.4 0,545.2 -89.1,4.8 -175,9.2 -260.9,14.2 -177.7,10.5 -353.8,31.7 -524.6,84.4 -131.7,40.6 -254.1,99.8 -362.9,185.8 -168.7,133.4 -261,313.3 -311,517.3 -60,245.2 -69.9,495.6 -68.8,746.6 0.3,63.4 32.9,93.7 101.2,91.1 170.7,-6.3 341.4,-14.3 511.8,-25.4 150.5,-9.8 297.9,-39.2 441.4,-85.7 158.9,-51.4 300.1,-131.5 408.4,-262.2 92.4,-111.4 143.2,-241.9 174.8,-381.2 7.1,-30.9 12.9,-62.2 20.5,-99.3 9.8,8.7 19,13.8 23.8,21.7 123.6,200 309.4,301.6 535.3,341.9 174,30.9 349.5,26.8 525,26.1 38.7,-0.1 77.5,0.5 116.2,-0.8 62,-2.1 94.3,-31.2 92.1,-92.9 -3.8,-106.9 -7.2,-214.4 -21.9,-320.1 -12.1,-87.3 -32.9,-175 -63,-257.8 -76.5,-210.1 -237,-334 -442.1,-406.9 -138.4,-49.2 -282.1,-71.2 -427.9,-81.4 -97.5,-6.7 -195.3,-10.6 -292.4,-15.7 -13.3,-51.2 -17.7,-399.5 -6.9,-541.3 40.6,-15.3 83.9,-5.9 126.1,-7 72.9,-1.9 139.1,-22.2 197.7,-65.6 65.7,-48.7 99.5,-116.7 113.7,-202.2 18.2,10.5 33.4,17.9 47.2,27.4 167.6,114.3 335.1,228.6 502.2,343.5 77.9,53.5 161,94.6 254.6,111.4 130.4,23.3 245.9,-48.2 280.1,-171.3 16.3,-58.9 6,-115.2 -23.6,-164.6 -25.2,-42.2 -57.5,-83.2 -95.1,-114.6 -310.3,-257.8 -621,-515.2 -934.7,-768.9 -201.6,-163 -434.4,-224 -691.4,-186.6 -209.5,30.4 -418.5,63.6 -628.1,93.3 -22.4,3.1 -49.7,-4.3 -70,-15.4 -94.1,-51.2 -188.5,-102.2 -278.6,-159.8 -55.7,-35.5 -105.1,-38 -166.4,-15.7 -110.3,40.1 -214.6,89 -306.4,162.4 -208.9,167.1 -300.6,387.8 -297.7,652.2 0.7,64.9 27.4,105 88.6,130.1 136.9,56.1 272.4,115.6 407.3,176.3 36.7,16.5 72.4,38.5 103.1,64.4 105.6,89.4 220.8,160 353.2,202.7 219.6,70.9 432.7,54.3 634.4,-55.6 68.2,-37.1 134.2,-50.2 215.7,-40"
         style="fill:#323293;fill-opacity:1;fill-rule:nonzero;stroke:none"
         transform="matrix(0.13333333,0,0,-0.13333333,0,5333.3333)" />
      <path
         id="path59"
         d="m 4816.23,35683.4 c -16.83,152.9 -65.95,287.4 -154.67,406.9 -10.54,14.3 -22.97,27.5 -36.26,39.2 -30.41,26.8 -64.43,44.9 -105.61,25.8 -39.73,-18.5 -58.03,-53.8 -52.95,-94.9 7.97,-64.3 16.37,-129.7 35.85,-191.1 29.53,-93 72.89,-180.4 143.22,-251.8 57.06,22.1 109.23,42.2 170.42,65.9 z m -407.69,-404.5 c 26.63,62.5 48.34,113.5 72.47,170.1 -95.14,79.7 -203.88,130.3 -321.78,161.7 -39.52,10.5 -81.41,13.7 -122.48,16.3 -44.5,2.8 -83.68,-12.3 -100.9,-56.7 -17.29,-44.6 3.26,-82.5 35.87,-111.2 123.98,-108.8 270.4,-163.3 436.82,-180.2 z m -0.21,-234.2 c -164.01,-20.5 -308.36,-72.5 -431.78,-177.2 -4.48,-3.8 -8.26,-8.4 -12.14,-12.9 -26.56,-30.6 -45.14,-64.7 -28.06,-105.3 16.74,-39.9 51.61,-57 93.3,-54.4 43.95,2.6 88.98,4.9 131.16,16.2 117.58,31.5 226.97,80.5 318.84,162.2 -23.96,57.6 -45.27,108.8 -71.32,171.4 z m 1047.19,235.9 c 102.67,1.6 191.93,32.4 276.17,75 57.45,29.1 111.65,66.2 162.84,105.5 34.17,26.2 52.34,66.9 34.22,111 -18.03,43.9 -57.32,56.7 -102.07,55.4 -170.13,-4.7 -310.82,-78.9 -441.91,-178.1 24.64,-58.8 46.07,-109.9 70.75,-168.8 z m -810.12,-571.8 c -76.06,-87.5 -121.52,-184 -152.99,-286.4 -15.45,-50.4 -20.89,-104.3 -25.89,-157.1 -4.23,-44.6 12.7,-83.3 56.96,-101.4 41.4,-17 77.58,1.2 104.67,30.7 114.4,124.5 168.07,274.3 186.98,439.9 -60.03,26.3 -111.18,48.7 -169.73,74.3 z m 410.64,-68.2 c 0,-22.4 -3.97,-46.2 0.65,-68.2 25.2,-119.6 66.44,-233.3 140.34,-332.1 19.1,-25.6 43.34,-49.5 70.06,-66.7 51.91,-33.2 108.39,-10.5 126.51,48.2 5.12,16.5 6.2,35.1 5.48,52.6 -6.88,166.2 -79.55,304.5 -177.24,435.3 -58.68,-24.4 -109.96,-45.8 -165.8,-69.1 z m 330.17,237.3 c 8.4,-9.5 14.76,-19.8 23.8,-26.4 103.93,-76.6 220.03,-126.9 345.77,-153.7 31.17,-6.7 65.4,-6 97.17,-1.4 78.88,11.3 106.39,79.2 58.47,143.8 -17.32,23.3 -40.08,43.9 -63.8,60.9 -82.57,59.4 -174.63,99.1 -273.62,121.7 -39.05,8.9 -79.1,13.5 -117.04,19.7 -26.03,-60.5 -47.95,-111.5 -70.75,-164.6 z m -163.23,735.1 c 93.82,123.4 160.28,256.4 175.79,411.4 5.12,51.2 3.17,103.6 -52.36,131.3 -41.33,20.6 -89.45,1.5 -136.32,-58.1 -86.38,-109.8 -136.2,-235.7 -154.9,-373.9 -1.88,-13.9 1.25,-28.5 2.03,-42.3 55.25,-22.8 106.86,-44.1 165.76,-68.4 z m -284.72,-774.7 c 176.98,2.8 321.9,153.6 317.34,330.2 -4.59,177.7 -153.5,318.5 -332.88,314.6 -171.16,-3.7 -315.08,-153.5 -313.04,-325.8 2.1,-177.3 150.91,-321.7 328.58,-319 z m 811.65,-1396.7 c -552.34,0 -1095.55,0 -1639.48,0 0,-72.7 0,-139.2 0,-206.7 549.55,0 1092.49,0 1639.48,0 0,70.4 0,134.7 0,206.7 z m -1418.99,-428.2 c 41.07,-338 73.79,-668.1 119.94,-996.1 323.05,0 635.02,0 955.65,0 38.99,331.6 77.69,660.8 117.11,996.1 -398.69,0 -790.16,0 -1192.7,0 z m -28.01,2773.3 c -15.31,64.5 -29.47,115.6 -39.29,167.5 -13.41,71 -12.56,141.9 9.41,211.8 52.55,167.2 233.37,250.6 394.23,181.1 70.24,-30.4 125.68,-79.5 168.78,-141.7 31.98,-46.1 60.22,-94.9 94.61,-149.6 13.29,19.1 23.53,35.2 35.13,50.2 48.77,63.2 90.8,133.8 148.63,187.3 89.6,82.9 199.05,104.3 314.99,54.1 115.93,-50.2 172.44,-145.5 177.85,-266.7 2.99,-67.1 -13.25,-135.3 -22.79,-202.6 -3.64,-25.8 -12.77,-50.8 -21.61,-84.6 64.03,13.5 120.33,31.5 177.66,35.9 61.33,4.7 126.22,6.9 185.05,-7.8 189.41,-47.3 274.16,-253.2 179.78,-424.4 -46.08,-83.6 -118.35,-140.1 -198.89,-187.5 -24.7,-14.5 -49.31,-29.2 -82.22,-48.7 47.9,-29.1 88.72,-51.7 127.23,-77.7 67.32,-45.5 125.49,-100.2 161.91,-174.8 80.31,-164.5 -3.47,-355.5 -178.17,-408.4 -95.08,-28.8 -188.43,-16.3 -281.74,7 -25.82,6.5 -51.13,15.1 -90.17,26.7 8.37,-34.7 14.63,-61.3 21.23,-87.9 22.42,-90.1 37.21,-179.9 11.8,-272.8 -56.26,-205.7 -275.81,-289 -452.72,-169.2 -33.86,22.9 -63.58,52 -104.06,85.5 0,-147 0,-284 0,-427.7 31.2,-1.4 60.14,-3.8 89.08,-3.9 226.29,-0.3 452.57,0.1 678.85,-0.2 120.83,-0.2 153.88,-32.7 154.71,-152.7 0.76,-110.1 0.49,-220.3 -0.35,-330.5 -0.93,-122.9 -30.98,-153.2 -151.17,-156.1 -23.27,-0.5 -46.51,-2.8 -74.7,-4.5 -11.38,-85.2 -23.51,-167.1 -33.06,-249.3 -31.93,-274.7 -63,-549.5 -94.25,-824.2 -11.91,-104.7 -44.66,-136.3 -147.8,-136.4 -357.29,-0.5 -714.58,-0.6 -1071.86,0 -95.09,0.2 -124.65,22.7 -136.92,114.6 -25.19,188.6 -46.13,377.7 -68.77,566.6 -20.83,173.8 -41.6,347.5 -63.43,529.8 -34.86,1.3 -66.43,2.5 -97.99,3.7 -90.16,3.5 -124.59,36 -125.65,124.4 -1.54,128 -1.32,256.1 -0.54,384.1 0.58,93.7 34.98,129.3 129.07,130 181.61,1.4 363.24,0.5 544.86,0.6 80.2,0 160.41,0 251.67,0 1.2,71.7 2.76,138.9 3.31,206 0.57,68.2 0.13,136.4 0.13,219.2 -27.17,-20.8 -44.8,-33 -61.05,-46.9 -98.55,-84.1 -208.16,-116.5 -330.52,-61 -125.11,56.8 -178.37,162.4 -176.3,295.2 0.92,58.7 15.09,117.4 24.79,175.8 4.24,25.5 12.35,50.4 20.6,83.2 -61.77,-13.9 -115.16,-32.9 -169.54,-36.4 -67.29,-4.2 -138.46,-7.2 -202.56,9.8 -175.46,46.3 -257.96,243.6 -177.82,406.7 43.81,89.2 117.11,148.5 199.87,198.3 27.08,16.3 54.44,32.1 88.99,52.4 -50.72,31.4 -93.78,56.2 -134.9,83.9 -67.63,45.6 -124.47,101.9 -158.74,177.3 -73.52,161.8 12.84,349.5 183.08,400.5 91.79,27.5 182.62,17.5 273.16,-5.3 28.69,-7.2 56.75,-16.9 99.12,-29.7"
         style="fill:#323293;fill-opacity:1;fill-rule:nonzero;stroke:none"
         transform="matrix(0.13333333,0,0,-0.13333333,0,5333.3333)" />
      <path
         id="path60"
         d="m 27756.6,21088.3 c -43.3,76.1 -100.8,136.2 -176.4,177.3 -15.2,8.3 -42.1,9.9 -56.8,1.9 -79.8,-43.5 -142.7,-104.4 -179.4,-185.6 69,-92.4 134.3,-179.7 201.7,-269.9 71.5,93.7 138.3,181.2 210.9,276.3 z M 27455.3,18369 c -12.1,135.2 -30.8,258 -105.2,366.3 -63,91.5 -150.1,147.2 -256.1,173.8 -110.7,27.7 -223.8,35.7 -337.6,33.5 -20.2,-0.4 -40.3,-3.7 -68,-6.4 8.5,-67.7 13,-130.6 24.7,-192 31.3,-165.3 126.8,-273.1 290.3,-321.6 112.3,-33.4 227.1,-46.1 343,-53.2 33.4,-2.1 67.1,-0.4 108.9,-0.4 z m 953,921 c -133.3,5.6 -255.7,-0.3 -377.5,-25.6 -190.8,-39.8 -304.3,-158.3 -353.5,-342.6 -12.8,-48.2 -19.8,-98 -27.3,-147.5 -2.6,-16.7 1.5,-34.4 3.3,-62.9 110.2,10.8 215.5,15.2 318.5,33 74.3,12.8 147.3,39.1 217.5,67.5 76.5,30.9 127.3,92.3 160.2,167.4 42,95.6 55.3,196.6 58.8,310.7 z m -561.7,487.6 c 20.4,7.4 28.4,9 34.9,13 234.5,142.7 364.6,348.8 368.7,625.6 3.7,246.1 0.9,492.3 0.7,738.4 0,23.4 -1.9,46.8 -3.3,77.6 -24.2,-12.5 -43.4,-20.4 -60.5,-31.4 -210.8,-135.9 -376.9,-313.7 -502.4,-531 -25.1,-43.5 -27.8,-78.9 -8.1,-125.3 93.9,-220.8 145.6,-452 160.3,-691.5 1.3,-22.7 5.7,-45.2 9.7,-75.4 z m -997.5,1460.3 c 0,-39.6 0,-65 0,-90.4 -0.1,-243.2 4.3,-486.4 -1.2,-729.4 -7.2,-317.8 235.1,-653.3 612,-710.7 64.2,-9.8 130.3,-14.7 201.4,8.6 -12.6,336.2 -81.5,655 -248.8,947.8 -134.6,235.7 -316.8,425.5 -563.4,574.1 z m 349.5,-18.9 c 21.6,25.6 38.1,45.7 55.3,65.1 63.9,72.2 139.6,128.5 224.8,173.8 49.4,26.3 94.3,25.5 142.8,-0.3 89.7,-47.7 170.6,-106 234.7,-185.8 12.8,-16 26.7,-31.1 41.6,-48.5 59.4,42.1 113.5,84.2 171.2,120.5 62.5,39.4 126.7,77.1 193.3,108.8 119.7,57.1 175.2,20.9 175.4,-110.3 0.4,-248.8 1.5,-497.7 -0.5,-746.5 -0.9,-108.2 0.7,-217.7 -14.8,-324.3 -55.9,-384.4 -381,-696.1 -745,-743.9 -7.6,-1 -14.8,-4.6 -21.6,-6.9 -15.3,-58.1 -17.3,-168 -4.4,-251.2 7.3,3.8 15.4,5.8 20.6,10.8 123.4,121.6 278.2,169.9 444.9,184 118.4,10 237.6,12.2 356.5,14.2 90.9,1.5 123.5,-33.1 122.9,-124.6 -0.8,-138 -13.5,-274.6 -58.9,-406.3 -46.1,-133.7 -131.1,-233 -257.4,-298.3 -119.7,-61.9 -247.3,-91.9 -380,-104.1 -81.4,-7.5 -163.1,-12.4 -244.5,-18.5 -14.9,-56.2 -18.7,-400.5 -5.1,-507.8 79,-12.7 160,-22.4 239.4,-39 195.7,-41.1 374.8,-126.7 553.9,-212.1 145.9,-69.5 294,-133 456.2,-154.1 39.2,-5.1 79,-8.3 118.5,-8.6 142.9,-1.1 285.9,-0.6 428.8,-0.7 18.5,-0.1 37.5,1.7 55.5,-1.5 42.8,-7.6 76.5,-47.2 78,-88.4 1.6,-43.1 -27.1,-81.9 -71.6,-92.8 -17.7,-4.3 -36.8,-3.9 -55.2,-3.9 -142.9,-0.3 -285.9,-1.5 -428.8,0.3 -193.6,2.3 -376,53.5 -551.5,132 -103.7,46.5 -206.5,95.2 -309.9,142.7 -227.8,104.6 -466.4,153.5 -717.2,135.7 -176,-12.6 -343.2,-60.7 -503.7,-132.5 -103.8,-46.4 -206.5,-95.3 -309.8,-142.7 -202.6,-92.8 -414.1,-142.1 -638.1,-136.2 -111.1,3 -222.4,0.5 -333.6,0.6 -21.1,0.1 -42.7,-1.4 -63.3,2.3 -48.6,8.9 -80.7,49.4 -78.7,95.2 2,44.8 38.2,82.7 86.5,88.4 18.3,2.2 37.1,0.8 55.6,0.8 119.1,0 238.3,3 357.3,-0.7 178.4,-5.5 346.4,34.5 507.9,106.1 106.4,47.1 211.3,97.4 317.4,144.9 174.6,78.3 354.3,138.7 547,152.4 18.3,1.2 36.3,6.2 59.8,10.4 0,51.7 0,102.7 0,159.2 -81.6,6.2 -162.7,11.9 -243.6,18.4 -111.3,9 -219,33 -323.2,74.4 -181,71.8 -298.9,201 -338.7,390.1 -24.9,118.1 -32.2,240.5 -40.6,361.4 -4.7,67.8 33.4,106.1 99,107.7 169.4,4.3 339,3.7 505.6,-33 118,-26.1 226,-74 314.3,-159.7 7,-6.8 15.9,-11.6 29.5,-21.2 0,204.8 0,402.4 0,603.4 -43.2,9.7 -84.1,17.8 -124.5,28.2 -334.7,85.7 -601.6,382 -651.2,725.5 -9.4,65.2 -14.2,131.5 -14.6,197.4 -1.5,277.9 -0.6,555.9 -0.6,833.8 0,18.5 -0.4,37.1 0.1,55.6 2.5,106.6 58.7,144.4 154.9,103.4 115.2,-49.2 218,-119.1 317.5,-194.1 18.9,-14.2 37.6,-28.8 63.9,-49"
         style="fill:#323293;fill-opacity:1;fill-rule:nonzero;stroke:none"
         transform="matrix(0.13333333,0,0,-0.13333333,0,5333.3333)" />
      <path
         id="path61"
         d="m 19857.6,7298 c -27.4,-12.6 -38,-16 -47.1,-21.8 -222.4,-142.5 -347.9,-343.9 -346.6,-609.8 1.7,-340.7 13.9,-681.3 22.5,-1021.9 1.6,-64 7.1,-128 11,-196.2 93.3,-7 181,-5.3 272.9,-2.2 0,42.2 0,73 0,103.7 -0.1,323.9 1.2,647.8 -0.5,971.7 -1.3,256 -1.2,511.5 87.8,776.5 z m 570.7,-9.5 c 4.1,-15.2 6.5,-25 9.3,-34.7 55.3,-187.6 73.2,-379.7 72.6,-574.5 -1.1,-379.6 -0.3,-759.2 -0.3,-1138.7 0,-29.9 0,-59.9 0,-91.7 107.5,0 204.2,0 308.2,0 0,29.4 0,54.2 0,78.9 0,382.4 0.3,764.8 -0.1,1147.1 -0.3,273 -133.2,468.4 -359.2,608.2 -6,3.7 -14.7,2.8 -30.5,5.4 z m -459.2,-1839.2 c 118.9,0 226.9,0 342,0 0,35.7 0,66.1 0,96.5 0,385.7 1.2,771.4 -0.9,1157.1 -0.5,101 -3.3,203.4 -20.2,302.5 -16.4,96 -49.8,189.4 -80.9,282.3 -11.8,35.4 -32.2,71.4 -73,84.1 -54.3,-53.5 -72.7,-82.5 -97.8,-158.4 -50.7,-153.8 -69.6,-312.1 -69.4,-473.5 0.5,-399.8 0.2,-799.6 0.2,-1199.3 0,-27.9 0,-55.7 0,-91.3 z m -1043.4,-472.9 c 815.2,0 1621.2,0 2427.9,0 0,91.2 0,176.8 0,264.7 -811.4,0 -1617.4,0 -2427.9,0 0,-89.7 0,-175.2 0,-264.7 z m 2009.4,-1286.7 c 57.1,361.6 113.2,717.6 169.8,1077.1 -648.3,0 -1285.7,0 -1930.1,0 57.4,-362.6 113.8,-718.9 170.4,-1077.1 532.3,0 1055,0 1589.9,0 z M 19289,5443.8 c 0,97.4 0,180.9 0,269.2 -30.6,2.2 -55,4.5 -79.5,5.4 -25.3,0.9 -50.8,-1.2 -76,0.6 -63,4.5 -106,45.1 -106,98.2 0.1,54 42.6,96 104.7,99.2 46.9,2.5 94.1,0.5 144.7,0.5 0,82 0,154.2 0,236.9 -28.5,1.4 -55.2,3 -82,3.9 -25.3,0.7 -51,-1.8 -76,1.5 -52,6.7 -89.6,47.5 -91.2,95.1 -1.7,50.7 37.8,96.3 93.9,100.9 47,3.9 94.5,0.8 144.1,0.8 0,82.8 0,157.1 0,241.4 -46.3,0 -84.9,-1.2 -123.4,0.2 -69.2,2.5 -113.6,41.2 -114.7,98 -1.2,55.6 44.3,97 112.7,99.9 41.7,1.8 83.6,0.3 127.3,0.3 10.8,44.2 19,82.1 29.6,119.4 9.9,34.8 22.5,69 36.6,111.4 -43.5,26.1 -86.6,51 -128.6,77.7 -37.3,23.8 -50,59.9 -43.2,102.4 5.8,37 41.1,74 80.5,75.6 26.3,1.1 54.2,-9.5 79.7,-19.2 20.7,-8 38.7,-22.8 58.4,-33.8 16.8,-9.4 34.2,-17.7 52,-26.9 53.9,58 105.2,113.2 160.6,172.9 -23.6,43.2 -50.4,85.9 -71,131.4 -23.2,51.3 -7.3,102.1 33.7,126.4 41.6,24.6 96.4,15.2 129.7,-24.3 12.5,-14.9 21.5,-32.9 31.7,-49.7 14.4,-23.7 28.6,-47.7 44.2,-73.9 91.1,28.5 178.7,56 276.1,86.5 0.9,35.8 0.2,77.3 3.7,118.3 2.1,24.5 6.4,50.8 17.6,72 20.3,38.2 61.9,53.8 100.5,44.6 42,-10.1 74.1,-42.8 78,-89.4 3.8,-47.3 0.8,-95.1 0.8,-141.8 96.8,-29.2 187.4,-56.5 282.9,-85.3 19.3,32.1 38.5,66.1 59.6,98.8 35.8,55.5 95.7,73.5 143.6,44.4 45.7,-27.8 56,-81.2 26.3,-141.8 -9.9,-20.2 -22.6,-39 -33.3,-58.8 -9.2,-17.2 -17.4,-34.9 -27.9,-56 50.8,-56.3 101.1,-112.2 156.9,-174.1 45.5,24.2 91.3,49.7 138.1,73.2 40.9,20.6 76.9,7.4 107.7,-22.1 28.5,-27.3 38.4,-75.8 18,-108.6 -12.8,-20.5 -33.2,-37.8 -53.5,-51.6 -34.4,-23.5 -71.5,-43.2 -109,-65.4 21,-77.6 40.6,-150 62.8,-231.9 25.6,0 53,0.2 80.3,0 22.5,-0.2 45.3,1.3 67.5,-1.4 56.4,-6.9 96.3,-50.6 94.4,-100.8 -1.9,-51.2 -41.9,-91.8 -99.4,-95.8 -41.6,-2.9 -83.5,-0.6 -136.3,-0.6 0,-44.5 0,-82.8 0,-121.2 0,-36.2 0,-72.3 0,-119.8 43.9,0 82.2,1.1 120.5,-0.3 69.7,-2.4 114,-40.7 115,-97.6 1,-56.9 -43.5,-97.7 -112.1,-100.6 -36.4,-1.5 -73,-0.2 -116.5,-0.2 0,-79.4 0,-155.9 0,-240.9 40.5,0 79.3,1.4 118,-0.3 67.6,-3 112.3,-45 110.8,-101.8 -1.3,-52.7 -44.8,-92.4 -108.3,-95.8 -38.8,-2.1 -77.8,-0.4 -122,-0.4 0,-92.5 0,-178.1 0,-270 27.8,-1.6 54.9,-4.4 82.1,-4.5 112.7,-0.5 225.4,0.8 338,-0.6 76.2,-1 113.9,-37.9 114.6,-114 1.6,-149.3 1.7,-298.6 -0.1,-447.8 -0.9,-70.8 -39.5,-107 -110.6,-109.5 -44.6,-1.5 -89.2,-0.3 -138.6,-0.3 -18.2,-108.5 -36.1,-210.4 -52.3,-312.5 -45.3,-286 -89.6,-572.2 -135.2,-858.1 -14.2,-89 -43.8,-113.5 -135.8,-113.5 -563.3,-0.4 -1126.6,-0.4 -1689.9,0 -91.5,0 -120.3,24.6 -134.7,114.8 -51,319.3 -100.9,638.7 -151.6,958 -10.9,68.7 -23.4,137.2 -36.1,211.4 -50.3,0 -95,-1.4 -139.5,0.3 -70.7,2.6 -108.6,39.2 -109.4,110.7 -1.7,149.3 -1.7,298.6 -0.1,447.8 0.9,75.5 39,111.8 115.9,112.7 118.3,1.3 236.6,0.3 354.9,0.2 30.4,0 60.8,0 95.1,0"
         style="fill:#323293;fill-opacity:1;fill-rule:nonzero;stroke:none"
         transform="matrix(0.13333333,0,0,-0.13333333,0,5333.3333)" />
      <path
         id="path62"
         d="m 35144.3,5945.9 c 47.2,45.1 75.2,76.9 108.2,102.3 60.3,46.4 144.5,16.9 159.8,-54.4 8.5,-39.4 -8.5,-71.2 -35.8,-98.6 -53.7,-53.8 -102.5,-114 -162,-160.3 -83.9,-65.3 -77,-145.1 -60.7,-234.6 291.4,0 578.9,-11.1 865.3,2.8 361.3,17.6 637.3,378.6 577.6,734.8 -78.2,465.8 -577.8,686.5 -962.7,461.6 -14.5,-8.5 -28.8,-18.1 -44.5,-24 -51.1,-19.1 -95.8,-2.4 -122.4,44 -24.2,42.3 -18.1,86.4 24.6,119.9 32.9,25.7 70.4,46.6 108.3,64.4 50.2,23.6 102.6,42 155.9,63.4 -2.3,16.9 -2.6,31.1 -6.3,44.3 -172.7,618 -821,872.5 -1270.6,764.9 -405.9,-97.1 -670.3,-351.7 -802.2,-744.8 -24,-71.6 -34.7,-147.6 -51.6,-221.5 -14.4,-62.7 -60,-98.6 -112.2,-88.6 -53.5,10.2 -85.9,58.5 -80.4,120.3 0.7,8.4 2.9,16.7 4.3,25 10.3,60.4 20.4,120.8 31.9,188.6 -30,0 -57.8,2.6 -85,-0.4 -396,-43.7 -678.7,-347.2 -704.3,-732.4 -29.8,-447.6 324.5,-821 773.2,-823.6 199.9,-1.1 399.9,-0.4 599.9,-0.1 24.6,0 49.1,2 73.5,3.1 21,79.1 6.1,136.9 -53.5,192.1 -119.9,110.8 -232.6,229.3 -347.7,345.2 -17.8,17.8 -35.4,36.8 -48.6,58 -22.8,36.5 -17.4,76.2 10.5,109.2 26.8,31.6 69.7,45 106.5,27.5 22.1,-10.5 42.2,-27.6 60,-45 72.5,-70.8 143.5,-143.1 215.6,-214.4 17.2,-17 36.3,-32 65.7,-57.6 0,42.6 0,70.3 0,98.1 0,154.9 -0.4,309.8 0.1,464.7 0.3,85.4 34,131 96.1,133.4 64.4,2.5 102.4,-46.5 102.4,-135.8 0.3,-746.4 0,-1492.7 0.4,-2239.1 0,-90 -23.9,-172 -74,-246.5 -23.3,-34.7 -47.1,-69.1 -75.1,-110.2 306,0 604.2,0 912.1,0 -14.1,19 -21.7,30.3 -30.3,40.8 -85.4,104.5 -122.3,223 -121.7,359.1 2.8,625.2 1.4,1250.5 1.6,1875.8 0,22.5 -1.9,45.4 1.6,67.4 7.9,49.4 53.7,86.2 101.1,84.3 44.1,-1.8 85.9,-37.7 93.7,-83.2 3.2,-19.2 1.6,-39.3 1.6,-59.1 0.2,-67.3 0.1,-134.6 0.1,-220.8 z m 814.9,1058 c 116.8,-31.1 229.8,-47.9 331.9,-90.6 367.1,-153.5 532.2,-522.1 506.3,-839.8 -30,-367.9 -298.7,-674.9 -651,-751.3 -65.5,-14.2 -133.8,-20.4 -200.9,-21.1 -236.5,-2.5 -473,-1 -709.5,-1.1 -27.5,0 -55.1,0 -87.7,0 -1.5,-29.4 -3.5,-51.1 -3.5,-72.9 -0.2,-323.8 1.1,-647.6 -1.1,-971.4 -0.5,-77.7 22.8,-143.9 70.9,-202 93.3,-112.8 201.1,-193.6 360.8,-178.9 92.2,8.4 185.7,1.7 278.6,1.3 19.6,0 40,1.1 58.7,-3.5 45.6,-11.2 77.7,-55.3 75.7,-99.5 -1.8,-42.5 -31.3,-80.9 -75.2,-90.8 -24.3,-5.5 -50.3,-4.5 -75.5,-4.5 -777.2,-0.2 -1554.3,-0.2 -2331.4,-0.2 -19.7,0 -39.7,-1.2 -59.1,1.5 -50.8,7.3 -88.8,49.5 -89.5,96.8 -0.7,50.3 40.5,97.1 95.2,99.1 84.3,3.2 169.4,7.2 253.3,0.1 178.6,-15.1 292,82.6 382.4,216.1 26.7,39.4 43.4,93.8 44,141.5 3.6,340.7 1.9,681.4 1.7,1022.1 0,11 -1.8,22 -3.4,40.1 -24.8,1.7 -49,4.9 -73.1,4.9 -199.9,0.4 -399.9,-3 -599.7,1 -355.1,7.2 -637.2,157.2 -827.3,457.6 -365.9,578.3 -42.9,1335.5 633,1477.6 90,18.9 184.1,18.7 282.7,28 265.4,492.2 680,769.5 1250,725.5 615.2,-47.6 995.4,-411.1 1162.7,-985.6"
         style="fill:#323293;fill-opacity:1;fill-rule:nonzero;stroke:none"
         transform="matrix(0.13333333,0,0,-0.13333333,0,5333.3333)" />
      <path
         id="path63"
         d="m 6822.23,7521.4 c -39.04,0 -69.58,0 -100.13,0 -475.64,-0.1 -951.28,0.9 -1426.91,-0.9 -95.35,-0.4 -191.36,-5.8 -285.81,-18.4 -146.08,-19.4 -285.33,-62.5 -408.21,-148.3 -144.85,-101.2 -216.16,-240.2 -213.71,-416.5 1.77,-127.7 76.36,-272.1 269.39,-267.1 295.31,7.7 590.98,2 886.49,2.2 24.93,0 49.85,2.1 77.14,3.4 8.08,26.6 13.1,51.4 23.01,74.1 29.1,66.7 52.49,137.6 91.85,197.9 129.95,199.1 321.12,292.6 555.83,298 146.27,3.4 292.68,0.6 439.03,1 29.85,0 59.7,1.5 92.03,2.5 0,92.8 0,176.4 0,272.1 z M 6579.75,3601 c 0,15.5 0.65,26.1 -0.1,36.7 -9.05,129 -16.63,258.2 -27.93,387 -13.76,156.8 -28.25,313.6 -46.78,469.8 -35.4,298.5 -189.35,517.4 -451.96,661.7 -59.12,32.5 -117.11,67 -175.52,100.8 -271.51,157.1 -444.29,385.9 -493.76,698 -22.38,141.3 -30.2,284.8 -44.05,427.4 -2.85,29.4 -3.15,59 -4.52,86.7 -179.05,0 -347.12,0 -517.21,0 -8.02,-30.1 -16.43,-56.6 -22.09,-83.7 -32.78,-156.7 -64.77,-313.5 -97.28,-470.3 -79.52,-383.3 -136.28,-769.6 -140.08,-1161.7 -3.52,-363.1 -1.66,-726.1 -1.72,-1089.2 0,-21.3 4.01,-42.6 6.08,-63.2 675.05,0 1343.7,0 2016.92,0 z M 4611.41,6464.3 c -51.69,13.7 -96.56,20.7 -137.59,37.3 -185.46,74.7 -273.4,222.7 -282.26,413.9 -13.57,293 122.42,507 374.73,649 139.08,78.3 290.94,121.1 448.63,137.5 117.29,12.1 235.78,16.8 353.77,17.2 495.54,1.8 991.09,0.8 1486.63,0.8 19.71,0 39.48,0.8 59.12,-0.4 67.87,-4.1 107.52,-38.2 108.6,-103.9 2.53,-154.8 2.59,-309.7 -0.06,-464.5 -1.12,-65.1 -41.39,-101 -109.7,-102.4 -101.32,-2.2 -202.71,-0.6 -304.07,-0.7 -106.99,-0.1 -213.99,-0.2 -320.98,-0.5 -80.24,-0.2 -155.08,-21.3 -230.49,-59.2 1.56,-19.5 -0.2,-39.3 5.04,-57 68.06,-230.2 189.02,-419.7 411.31,-530.5 12.54,-6.3 25.3,-12.9 36.17,-21.5 40.1,-32.1 49.61,-76 27.22,-120 -23.75,-46.8 -70.85,-68.9 -119.68,-47.6 -51.25,22.4 -101.45,49.3 -147.67,80.7 -155.65,105.9 -263.58,251.2 -338.35,422.5 -11.23,25.7 -21.95,51.7 -33.65,77.1 -2.11,4.6 -7.89,7.6 -14.92,13.9 -47.02,-63.5 -57.27,-139.1 -72.85,-212.1 -21.8,-102.1 -40.93,-119.6 -146.93,-120.4 -38.82,-0.3 -77.65,-0.1 -125.31,-0.1 0,-39.8 -0.44,-72.7 0.07,-105.5 2.22,-143.8 17.62,-285.9 48.48,-426.7 45.94,-209.6 161.79,-368.5 341.65,-482 66.58,-42 134.26,-82.6 203.47,-120.1 336.46,-182.3 532.36,-461.3 571.88,-842.6 28.11,-271.4 46.02,-543.7 68.64,-815.6 4.44,-53.3 11.94,-106.4 13.86,-159.7 2.88,-80.4 -35.29,-119.9 -114.33,-123.5 -14.05,-0.6 -28.15,-0.1 -42.23,-0.1 -703.9,0 -1407.8,0 -2111.69,0 -22.52,0 -45.28,-1.4 -67.5,1.3 -49.3,6.1 -82.61,37.6 -90.28,86.1 -3.49,22.1 -2.37,44.9 -2.36,67.5 0.13,368.8 -1.06,737.6 1.06,1106.5 2.46,428.9 52.66,852.8 142.64,1272.2 37.68,175.6 72.63,351.8 109.93,533.1"
         style="fill:#323293;fill-opacity:1;fill-rule:nonzero;stroke:none"
         transform="matrix(0.13333333,0,0,-0.13333333,0,5333.3333)" />
      <path
         id="path64"
         d="m 13196.2,5020.7 c -23.3,77.9 -72.9,127.8 -135.4,161 -94.1,50.1 -191.1,95.3 -289.1,137.5 -95.4,41.2 -177.5,96.7 -235.2,184.7 -65.3,99.8 -89.8,209.8 -89.4,328.6 1.4,489.8 0.6,979.6 0.3,1469.4 0,33.7 0.5,67.9 -5,100.9 -12.2,73.3 -63.2,117 -132,118 -69.5,0.9 -122,-40.8 -136.4,-112.7 -6,-30 -6.5,-61.4 -6.6,-92.2 -0.2,-495.5 0.4,-990.9 -0.3,-1486.3 -0.1,-47.6 -1.9,-96.4 -12.5,-142.5 -39.9,-173.1 -140.1,-295.9 -306.9,-365.4 -103.6,-43.2 -204.9,-92.4 -304.4,-144.4 -60.3,-31.6 -107.7,-79.7 -125.6,-156.6 593.9,0 1183.3,0 1778.5,0 z m 28.7,-208.3 c -107.2,0 -204.5,0 -307.3,0 -2.4,-22.8 -6.5,-44.5 -6.6,-66.2 -0.3,-312.6 0.8,-625.2 -1.1,-937.7 -0.3,-49.7 15.3,-85.4 51.1,-117.9 43.8,-39.6 85.6,-81.7 125.3,-125.5 33.1,-36.4 34.9,-88.5 9.4,-124.3 -34,-48.1 -94.2,-59.8 -140.1,-17.8 -74.7,68.3 -147.1,139.8 -213.1,216.4 -20.4,23.6 -23.4,67.8 -23.5,102.6 -1.7,321 -0.9,642.1 -0.9,963.1 0,33.3 0,66.6 0,108.7 -106.9,6.2 -206.1,3.3 -314.3,1.8 0,-38.2 0,-68.5 0,-98.8 0,-292.8 1.7,-585.7 -1.2,-878.6 -0.7,-66.8 13.7,-119.2 66.4,-162.9 41,-34 78.6,-73.1 112.8,-113.9 46.9,-55.9 23.4,-136.5 -42.7,-158.2 -35.6,-11.7 -67.9,-3.7 -93.7,21.5 -70.5,68.9 -142.8,136.4 -207.2,210.7 -20.7,23.8 -25.6,67.1 -26.2,101.7 -2.4,168.9 -1,337.9 -1,506.9 0.1,160.5 0.2,321.1 -0.1,481.6 -0.1,27.4 -2.3,54.9 -3.8,86.9 -103.1,0 -200.5,0 -303.8,0 -2.2,-22.3 -6.2,-43.9 -6.2,-65.6 -0.4,-315.4 0.4,-630.8 -1.2,-946.2 -0.2,-43.2 12.2,-74.9 44.4,-103.3 37.8,-33.6 72.3,-71 107.9,-107 11.8,-12 24.4,-23.8 33.7,-37.7 26.3,-39.5 21.3,-92.4 -10.2,-124.1 -37.3,-37.5 -88.5,-44.2 -129.2,-6.8 -74.4,68.7 -147.5,139.6 -213.8,215.9 -20.4,23.6 -23.3,67.9 -23.5,102.7 -1.8,323.9 -1.2,647.7 -1.4,971.6 0,30.5 0,61.1 0,101.1 -105.5,7.6 -204.6,4.1 -308.1,2.4 -2.3,-28.5 -5.6,-50.3 -5.6,-72.1 -0.3,-307 1,-613.9 -1.1,-920.9 -0.3,-57.9 14.1,-102.2 59.1,-140.4 42.8,-36.2 82.1,-77.4 118.7,-120 45.4,-52.6 27.6,-126.7 -33.2,-155.1 -38.2,-17.9 -73.2,-9.6 -101.3,17.4 -71.1,68.3 -140.9,137.9 -208.7,209.4 -14.1,14.9 -20,39.4 -24.8,60.6 -4.2,18.9 -1.9,39.3 -1.9,58.9 -0.1,369 -0.6,737.9 0.5,1106.8 0.1,56 2.2,113.1 12.8,167.9 28.6,147.4 115.7,255.9 245.1,326.8 96,52.6 195.2,101.2 297.5,139.7 149.9,56.5 211.1,167.6 220.7,317.7 1.8,28 0.7,56.3 0.7,84.5 0.1,487.2 1,974.4 -0.2,1461.6 -0.3,113.8 33,210.9 123.2,283 103.1,82.4 217.8,103.1 340.3,50 124.6,-54 192.4,-150.9 201.7,-287.3 1.5,-22.4 1.1,-45 1.1,-67.5 0,-490.1 -0.2,-980.1 0.5,-1470.1 0.1,-42 2.8,-84.6 10.5,-125.7 20.4,-109.4 77.6,-189.6 184.2,-234 101.2,-42.2 202.3,-85.8 298.6,-137.9 139.7,-75.4 238.9,-188.2 270.4,-348.2 11.8,-60.1 12.7,-123 13,-184.7 1.1,-335.1 2,-670.3 -0.7,-1005.4 -0.6,-64.5 15.4,-113.2 65.6,-154.8 40.9,-34 78.1,-73.3 112.8,-113.9 45.1,-53 27,-126.9 -34,-155 -38.3,-17.7 -73.2,-9.1 -101.3,17.9 -71,68.4 -142.5,136.5 -207.7,210.2 -19.5,22 -25.2,61.7 -26.2,93.6 -3.1,107 -1.2,214 -1.2,321.1 0,225.2 0,450.5 0.1,675.8 0,27.4 0,54.8 0,87"
         style="fill:#323293;fill-opacity:1;fill-rule:nonzero;stroke:none"
         transform="matrix(0.13333333,0,0,-0.13333333,0,5333.3333)" />
      <path
         id="path65"
         d="m 7429.83,7376.6 c 54.17,-49.1 100.47,-90.1 145.43,-132.4 16.16,-15.2 31.78,-32.3 42.91,-51.3 23.36,-39.8 15.59,-84.1 -16.7,-115.5 -32.86,-32 -75.5,-37.6 -116.05,-14.3 -12.08,7 -23.74,15.5 -33.6,25.3 -71.89,71.4 -144.35,142.3 -214.46,215.4 -52.54,54.8 -54.7,102.6 -4.63,155.4 73.59,77.5 149.16,153.4 226.98,226.7 48.38,45.5 102.33,43.8 143.16,3.3 39.53,-39.3 39.04,-94.7 -5.5,-142.7 -49.51,-53.3 -102.02,-103.8 -167.54,-169.9"
         style="fill:#323293;fill-opacity:1;fill-rule:nonzero;stroke:none"
         transform="matrix(0.13333333,0,0,-0.13333333,0,5333.3333)" />
      <path
         id="path66"
         d="m 27234.6,5630.3 c 15.8,-82 28.9,-165.2 49.2,-246.6 5.9,-23.6 28.1,-49.2 49.8,-61.8 217.2,-126 508,-111.8 706.8,51.9 -8.8,117.1 -17.5,235.1 -154.5,285.6 -2.6,0.9 -5.1,2.5 -7.3,4.3 -25.1,20.2 -49.8,17.5 -78.4,4.7 -150.8,-67.7 -304.9,-73.5 -459.7,-15.6 -42.4,15.8 -76,14.4 -105.9,-22.5 z m 429.8,1196.9 c 78.8,-36.6 149.9,-59.5 208.9,-100 61.5,-42.2 117.9,-96.3 164.3,-154.9 43.6,-55 71.2,-122.7 108.5,-189.5 32.2,31.2 62.9,56.4 87.5,86.5 12.5,15.4 21.1,40.2 19.4,59.7 -8.3,95.2 -20.5,190 -31.6,284.9 -26.4,226.2 -52.7,452.3 -79.4,678.4 -9.1,76.8 -19.3,153.4 -31.4,248.8 -274.8,-260.1 -373,-581.3 -446.2,-913.9 z m -711.6,-760 c -99.4,-55.2 -199.5,-110.8 -299.9,-166.7 0,-18.7 -1.1,-32.7 0.1,-46.4 14,-165.2 33.1,-330.1 41.2,-495.6 7.3,-148.6 10.9,-298.3 1.3,-446.6 -14.9,-230.7 -71.6,-454.5 -139,-675.2 -24.5,-80.1 -50,-159.9 -76.3,-243.9 19.3,-2.6 32.8,-5.9 46.2,-5.9 75.7,-0.5 151.4,-0.3 226.6,-0.3 16.7,24.7 32.1,44.8 44.7,66.5 33.7,58.5 67.7,116.8 98.9,176.6 227.6,436 281.7,889.6 137.2,1363.1 -35.5,116.2 -33.8,120.9 64.1,197.3 4,3.1 5.5,9.5 3.5,5.9 -49.4,90.2 -96.3,175.8 -148.6,271.2 z m 114.2,1764.3 c -58.5,-83.2 -109.2,-147.1 -151.3,-216.4 -196,-322.4 -257.3,-662.3 -125.7,-1025.6 17.6,-48.6 42.5,-89.9 82.4,-124.6 74.3,-64.6 145.1,-133.3 217.7,-199.9 29.9,-27.3 47.9,-57.6 55.6,-99.9 54.9,-301.9 347.9,-441.5 616.5,-293.3 53.4,29.5 99.9,32.1 150,1.3 67.2,-41.3 133.1,-84.5 201.1,-124.4 47.2,-27.7 70.9,-66.9 82.9,-120.1 47.4,-208.9 82.9,-420.3 92.4,-633.6 14.9,-335.3 -60,-653.5 -217.1,-951.3 -8.3,-15.7 -13.9,-32.8 -23.9,-57.2 85,0 160.8,-2 236.4,1.4 19.2,0.8 44.3,13.6 55.6,29 188.4,257.3 315.3,539.6 325.5,862.8 4.4,137.3 -4.5,275.9 -18.3,412.8 -17.7,176.5 -59.4,348.7 -124,514.9 -18.1,46.4 -44.7,80.5 -89.8,105.6 -130.2,72.5 -257.7,150.2 -387.1,224.3 -54.6,31.3 -85.1,69.4 -93.2,138 -22.7,190.8 -178.6,338.9 -366.6,348.7 -81.9,4.3 -120.7,38.9 -144.6,112.6 -57.2,176.5 -119.2,351.4 -179.4,526.9 -62.8,183.2 -125.8,366.3 -195.1,568 z m -231.5,-1601 c -43.6,41 -80,79.2 -120.4,112.4 -42.9,35.1 -70.8,78.4 -91.3,129.1 -161.8,399.8 -125,786.7 75.1,1162.7 70.3,132.3 158.3,252.7 259.4,363.3 17.1,18.7 34.6,37.1 52.8,54.7 93.3,90.2 161.4,74.8 204.6,-49.2 88.8,-254.8 175.7,-510.3 263.5,-765.4 12.7,-37.1 25.8,-74 45.3,-129.6 18.3,49.8 31.7,84 43.5,118.6 62.5,182.2 144.2,354.3 264.4,506.4 79.4,100.4 171.8,186.2 284.9,247.4 100.5,54.2 162.7,21.1 175.7,-90.1 43.2,-368.7 87.1,-737.4 130.6,-1106 11.2,-95 20.3,-190.3 33.6,-284.9 7.2,-51.8 -4.2,-93.5 -42,-130.1 -44,-42.6 -85.5,-87.7 -134.9,-138.6 80,-47.5 148.7,-97.1 224.3,-131.3 114.5,-51.9 174.9,-140 214.9,-254.7 69.9,-200.5 115,-405.2 131.2,-616.6 5.8,-75.7 12.1,-151.6 14.3,-227.4 10.9,-366.8 -98,-698.7 -297.7,-1003 -37,-56.3 -79.8,-108.8 -120.5,-162.6 -25.6,-33.7 -59.9,-48.5 -102.6,-48.3 -157.7,0.8 -315.4,0.9 -473.1,0 -46.5,-0.2 -81.7,15.7 -104.5,57.3 -24.5,44.5 -5.5,80.4 20.1,116.5 223.4,314.6 319.5,666.1 304,1049.8 -0.9,22.5 -2.5,45 -5.6,67.2 -2.6,19.1 -8,37.8 -14.2,66.1 -247.1,-116 -496.3,-144.2 -752.9,-37.2 -6.9,-87.4 -10.8,-165.7 -19.5,-243.6 -41.4,-372.3 -190,-702.9 -395.8,-1011.2 -31.4,-47.1 -71.4,-66.1 -127.4,-65.2 -138,2.1 -276,-0.3 -414,0.9 -108.5,0.9 -148.1,57.7 -110.6,158.7 98.3,264 180.5,532.5 228,810.6 10.5,61 21.1,122.6 22.6,184.1 7.8,326.8 0.3,652.8 -60.1,975.5 -11,59.2 4,92.8 60.5,125.5 82.8,48 167.1,93.3 250.7,140 24.2,13.6 48.1,27.9 83.1,48.2"
         style="fill:#323293;fill-opacity:1;fill-rule:nonzero;stroke:none"
         transform="matrix(0.13333333,0,0,-0.13333333,0,5333.3333)" />
      <path
         id="path67"
         d="m 27665.4,6229.3 c -0.7,-65.4 -53,-116.2 -118.4,-114.9 -61.9,1.4 -111.1,50.3 -112.7,112 -1.7,64.1 51.2,114.9 118.2,113.6 63.6,-1.4 113.5,-50.3 112.9,-110.7"
         style="fill:#323293;fill-opacity:1;fill-rule:nonzero;stroke:none"
         transform="matrix(0.13333333,0,0,-0.13333333,0,5333.3333)" />
    </g>
  </g>
</svg>
